<?xml version="1.0" standalone="no"?>
<!DOCTYPE svg PUBLIC "-//W3C//DTD SVG 20010904//EN"
 "http://www.w3.org/TR/2001/REC-SVG-20010904/DTD/svg10.dtd">
<svg version="1.0" xmlns="http://www.w3.org/2000/svg"
 width="570.000000pt" height="390.000000pt" viewBox="0 0 570.000000 390.000000"
 preserveAspectRatio="xMidYMid meet">

<g transform="translate(0.000000,390.000000) scale(0.100000,-0.100000)"
fill="#000000" stroke="none">
<path d="M700 3270 l0 -60 35 0 c19 0 35 4 35 9 0 4 -11 6 -25 3 -20 -3 -25 0
-25 17 0 16 6 21 25 21 14 0 25 5 25 10 0 6 -11 10 -25 10 -16 0 -25 6 -25 15
0 9 9 15 25 15 14 0 25 5 25 10 0 6 -16 10 -35 10 l-35 0 0 -60z"/>
<path d="M1128 3308 c-3 -7 -3 -32 0 -55 3 -36 8 -43 26 -42 11 0 15 3 9 6
-15 6 -18 63 -3 63 6 0 5 8 -2 20 -15 23 -24 25 -30 8z"/>
<path d="M813 3293 c-24 -9 -13 -23 12 -17 15 4 25 2 25 -5 0 -6 -8 -11 -19
-11 -10 0 -25 -7 -32 -16 -11 -14 -11 -18 4 -29 9 -7 28 -10 42 -7 21 4 25 10
25 42 0 44 -20 59 -57 43z m37 -52 c0 -14 -18 -23 -31 -15 -8 4 -7 9 2 15 18
11 29 11 29 0z"/>
<path d="M903 3293 c-21 -8 -15 -33 12 -45 14 -6 25 -15 25 -21 0 -5 -11 -6
-25 -3 -14 4 -25 2 -25 -3 0 -13 35 -20 54 -9 24 13 19 37 -9 44 -14 3 -25 11
-25 16 0 6 11 7 25 4 27 -7 35 8 9 18 -18 7 -23 7 -41 -1z"/>
<path d="M980 3297 c0 -2 7 -25 16 -51 14 -40 14 -50 3 -57 -7 -4 -10 -11 -7
-14 11 -12 28 5 43 43 23 53 29 82 17 82 -6 0 -13 -13 -17 -30 -4 -16 -10 -30
-15 -30 -4 0 -10 14 -13 30 -4 17 -11 30 -17 30 -5 0 -10 -1 -10 -3z"/>
<path d="M1196 3284 c-22 -22 -20 -50 6 -68 42 -29 87 26 52 65 -21 23 -37 24
-58 3z m48 -21 c8 -19 -17 -48 -33 -39 -12 8 -15 39 -4 49 12 12 31 7 37 -10z"/>
<path d="M1330 3256 c0 -46 0 -46 35 -46 35 0 35 0 35 46 0 29 -4 43 -10 39
-6 -4 -8 -16 -5 -26 7 -22 -12 -52 -26 -43 -5 3 -9 18 -9 34 0 16 -4 32 -10
35 -6 4 -10 -12 -10 -39z"/>
<path d="M1443 3293 c-23 -9 -14 -40 12 -47 14 -4 25 -11 25 -17 0 -7 -10 -9
-25 -5 -27 7 -35 -8 -9 -18 20 -8 54 11 54 29 0 8 -11 17 -25 21 -14 3 -25 11
-25 16 0 6 11 7 25 4 27 -7 35 8 9 18 -18 7 -23 7 -41 -1z"/>
<path d="M1526 3281 c-30 -34 7 -91 48 -75 23 9 19 24 -5 21 -12 -1 -24 4 -26
11 -3 8 6 12 26 12 34 0 39 11 15 34 -21 21 -37 20 -58 -3z m49 -11 c4 -6 -5
-10 -20 -10 -15 0 -24 4 -20 10 3 6 12 10 20 10 8 0 17 -4 20 -10z"/>
<path d="M3677 2913 c-4 -3 -7 -30 -7 -60 l0 -53 40 0 c45 0 61 20 42 50 -8
13 -8 20 0 28 17 17 -9 42 -42 42 -14 0 -30 -3 -33 -7z m58 -28 c0 -5 -10 -11
-22 -13 -16 -2 -23 2 -23 13 0 11 7 15 23 13 12 -2 22 -7 22 -13z m5 -49 c0
-16 -27 -29 -41 -20 -19 11 -9 34 16 34 15 0 25 -6 25 -14z"/>
<path d="M3880 2860 c0 -33 4 -60 10 -60 6 0 10 27 10 60 0 33 -4 60 -10 60
-6 0 -10 -27 -10 -60z"/>
<path d="M3797 2883 c-14 -14 -6 -20 21 -15 18 3 24 1 17 -6 -5 -5 -19 -12
-30 -14 -12 -2 -20 -11 -20 -23 0 -16 8 -21 38 -23 36 -3 37 -2 37 30 0 19 -5
39 -12 46 -13 13 -41 16 -51 5z m43 -53 c0 -12 -28 -25 -36 -17 -9 9 6 27 22
27 8 0 14 -5 14 -10z"/>
<path d="M3933 2884 c-24 -10 -13 -24 12 -18 15 4 25 2 25 -4 0 -6 -10 -12
-22 -14 -15 -2 -24 -11 -26 -25 -3 -20 1 -23 33 -23 l36 0 -3 43 c-2 34 -7 42
-23 44 -11 1 -26 -1 -32 -3z m37 -53 c0 -12 -20 -25 -27 -18 -7 7 6 27 18 27
5 0 9 -4 9 -9z"/>
<path d="M4020 2843 c0 -50 17 -58 22 -10 2 20 8 32 18 32 10 0 16 -12 18 -32
4 -43 22 -42 22 1 0 40 -15 55 -52 53 -26 -2 -28 -5 -28 -44z"/>
<path d="M4131 2876 c-7 -8 -11 -27 -9 -43 2 -22 9 -29 32 -31 16 -2 33 1 39
7 16 16 0 26 -17 12 -20 -17 -36 -5 -36 26 0 23 3 25 31 19 27 -5 30 -4 19 9
-16 19 -44 19 -59 1z"/>
<path d="M4226 2874 c-19 -18 -21 -45 -4 -62 14 -14 54 -16 63 -3 3 6 -7 9
-21 8 -15 -1 -29 4 -31 11 -3 8 6 12 26 12 32 0 41 16 19 38 -16 16 -33 15
-52 -4z m44 -14 c0 -5 -9 -10 -21 -10 -11 0 -17 5 -14 10 3 6 13 10 21 10 8 0
14 -4 14 -10z"/>
<path d="M879 2743 c-12 -15 -12 -16 4 -10 15 5 17 0 17 -39 0 -25 3 -43 8
-41 11 8 8 100 -4 104 -6 2 -17 -4 -25 -14z"/>
<path d="M948 2735 c-23 -51 20 -106 57 -75 18 15 20 71 3 88 -20 20 -48 14
-60 -13z m52 -28 c0 -40 -8 -51 -27 -36 -14 12 -18 51 -6 62 17 18 33 5 33
-26z"/>
<path d="M1050 2740 c-26 -48 9 -108 48 -84 36 23 22 104 -18 104 -11 0 -24
-9 -30 -20z m45 -41 c0 -24 -5 -34 -15 -34 -16 0 -25 37 -16 62 10 26 31 8 31
-28z"/>
<path d="M1180 2750 c0 -5 7 -10 15 -10 11 0 15 -12 15 -45 0 -25 5 -45 10
-45 6 0 10 20 10 45 0 33 4 45 15 45 8 0 15 5 15 10 0 6 -18 10 -40 10 -22 0
-40 -4 -40 -10z"/>
<path d="M1280 2705 c0 -54 1 -55 29 -55 33 0 57 23 45 42 -5 7 -7 21 -5 32 3
22 -15 36 -46 36 -21 0 -23 -5 -23 -55z m50 20 c0 -8 -7 -15 -15 -15 -8 0 -15
7 -15 15 0 8 7 15 15 15 8 0 15 -7 15 -15z m8 -42 c2 -8 -5 -13 -17 -13 -21 0
-35 13 -24 24 10 10 36 3 41 -11z"/>
<path d="M3119 2743 c-12 -15 -12 -16 3 -10 14 5 18 -2 21 -41 3 -46 3 -46 5
11 2 59 -6 69 -29 40z"/>
<path d="M3188 2735 c-23 -51 20 -106 57 -75 18 15 20 71 3 88 -20 20 -48 14
-60 -13z m52 -28 c0 -40 -8 -51 -27 -36 -14 12 -18 51 -6 62 17 18 33 5 33
-26z"/>
<path d="M3291 2746 c-17 -20 -10 -77 12 -90 38 -24 73 36 47 84 -12 23 -42
26 -59 6z m44 -46 c0 -51 -29 -48 -33 3 -3 33 -1 38 15 35 13 -2 18 -12 18
-38z"/>
<path d="M3410 2750 c0 -5 5 -10 10 -10 6 0 10 5 10 10 0 6 -4 10 -10 10 -5 0
-10 -4 -10 -10z"/>
<path d="M1791 2734 c0 -11 3 -14 6 -6 3 7 2 16 -1 19 -3 4 -6 -2 -5 -13z"/>
<path d="M1860 2729 c0 -5 5 -7 10 -4 6 3 10 8 10 11 0 2 -4 4 -10 4 -5 0 -10
-5 -10 -11z"/>
<path d="M2000 2726 c0 -2 8 -10 18 -17 15 -13 16 -12 3 4 -13 16 -21 21 -21
13z"/>
<path d="M2160 2690 c0 -16 2 -30 4 -30 2 0 6 14 8 30 3 17 1 30 -4 30 -4 0
-8 -13 -8 -30z"/>
<path d="M1901 2694 c0 -11 3 -14 6 -6 3 7 2 16 -1 19 -3 4 -6 -2 -5 -13z"/>
<path d="M1832 2680 c-7 -11 -8 -20 -3 -20 9 0 24 30 18 36 -1 2 -8 -6 -15
-16z"/>
<path d="M2230 2670 c0 -5 5 -10 10 -10 6 0 10 5 10 10 0 6 -4 10 -10 10 -5 0
-10 -4 -10 -10z"/>
<path d="M4326 2508 c-14 -20 -16 -124 -16 -920 l0 -898 45 0 45 0 0 688 c1
1181 2 1125 -17 1140 -24 18 -40 15 -57 -10z"/>
<path d="M3268 2422 c-63 -31 -145 -91 -153 -110 -3 -8 7 -4 22 7 123 94 193
126 256 116 28 -5 38 -4 33 4 -14 22 -101 12 -158 -17z"/>
<path d="M887 1723 c-14 -13 -7 -25 8 -13 15 12 35 6 35 -11 0 -5 -7 -9 -15
-9 -8 0 -15 -4 -15 -9 0 -5 7 -11 15 -15 29 -11 16 -29 -16 -22 -28 5 -30 4
-19 -9 17 -20 49 -16 64 8 8 13 8 20 -1 25 -8 5 -9 13 -3 22 16 26 -31 55 -53
33z"/>
<path d="M991 1696 c-27 -44 -26 -56 4 -56 14 0 25 -5 25 -12 0 -8 4 -8 14 2
17 19 10 100 -9 100 -7 0 -23 -15 -34 -34z m29 -16 c0 -11 -7 -20 -15 -20 -13
0 -14 4 -5 20 6 11 13 20 15 20 3 0 5 -9 5 -20z"/>
<path d="M1075 1719 c-4 -6 -4 -13 0 -17 3 -3 10 0 14 7 9 14 31 7 31 -9 0 -5
-11 -22 -25 -38 -14 -17 -25 -33 -25 -36 0 -3 16 -6 35 -6 19 0 35 5 35 10 0
6 -9 10 -20 10 -20 0 -20 0 1 30 18 24 20 32 9 45 -14 17 -46 20 -55 4z"/>
<path d="M1160 1700 c0 -27 2 -30 25 -24 21 5 25 3 25 -16 0 -19 -4 -21 -25
-16 -14 4 -25 2 -25 -3 0 -16 40 -23 56 -10 22 18 13 53 -14 57 -13 2 -21 9
-19 15 2 7 11 11 20 9 8 -1 18 2 22 8 4 6 -8 10 -29 10 -33 0 -36 -2 -36 -30z"/>
<path d="M3123 1723 c-7 -2 -13 -9 -13 -14 0 -4 6 -6 14 -3 11 4 16 -6 19 -43
l3 -48 2 58 c2 56 0 61 -25 50z"/>
<path d="M3189 1706 c-23 -50 19 -106 56 -76 18 15 20 71 3 88 -20 20 -48 14
-59 -12z m51 -32 c0 -28 -4 -35 -17 -32 -22 4 -30 57 -12 69 20 12 29 1 29
-37z"/>
<path d="M3292 1718 c-7 -7 -12 -26 -12 -43 0 -52 48 -76 70 -36 22 42 6 91
-30 91 -9 0 -21 -5 -28 -12z m43 -39 c0 -24 -5 -35 -17 -37 -14 -3 -18 4 -18
31 0 18 3 37 7 41 15 14 28 -2 28 -35z"/>
<path d="M3415 1720 c3 -5 8 -10 11 -10 2 0 4 5 4 10 0 6 -5 10 -11 10 -5 0
-7 -4 -4 -10z"/>
<path d="M1791 1704 c0 -11 3 -14 6 -6 3 7 2 16 -1 19 -3 4 -6 -2 -5 -13z"/>
<path d="M1861 1704 c0 -11 3 -14 6 -6 3 7 2 16 -1 19 -3 4 -6 -2 -5 -13z"/>
<path d="M1920 1696 c0 -2 7 -7 16 -10 8 -3 12 -2 9 4 -6 10 -25 14 -25 6z"/>
<path d="M2007 1689 c7 -7 15 -10 18 -7 3 3 -2 9 -12 12 -14 6 -15 5 -6 -5z"/>
<path d="M2110 1696 c0 -2 7 -7 16 -10 8 -3 12 -2 9 4 -6 10 -25 14 -25 6z"/>
<path d="M2160 1679 c0 -5 5 -7 10 -4 6 3 10 8 10 11 0 2 -4 4 -10 4 -5 0 -10
-5 -10 -11z"/>
<path d="M2255 1679 c-4 -6 -5 -12 -2 -15 2 -3 7 2 10 11 7 17 1 20 -8 4z"/>
<path d="M1902 1660 c0 -14 2 -19 5 -12 2 6 2 18 0 25 -3 6 -5 1 -5 -13z"/>
<path d="M1825 1640 c3 -5 8 -10 11 -10 2 0 4 5 4 10 0 6 -5 10 -11 10 -5 0
-7 -4 -4 -10z"/>
<path d="M2233 1644 c3 -4 2 -16 -4 -28 -10 -20 -10 -20 5 -2 19 24 20 36 4
36 -6 0 -8 -3 -5 -6z"/>
<path d="M3305 1411 c-53 -17 -195 -115 -195 -134 0 -4 21 9 48 31 87 72 140
97 208 97 34 0 60 3 57 8 -5 8 -90 8 -118 -2z"/>
</g>
</svg>
