<?xml version="1.0" standalone="no"?>
<!DOCTYPE svg PUBLIC "-//W3C//DTD SVG 20010904//EN"
 "http://www.w3.org/TR/2001/REC-SVG-20010904/DTD/svg10.dtd">
<svg version="1.0" xmlns="http://www.w3.org/2000/svg"
 width="570.000000pt" height="367.000000pt" viewBox="0 0 570.000000 367.000000"
 preserveAspectRatio="xMidYMid meet">

<g transform="translate(0.000000,367.000000) scale(0.100000,-0.100000)"
fill="#000000" stroke="none">
<path d="M635 3174 c-21 -22 -15 -36 23 -53 18 -8 32 -21 32 -28 0 -17 -47
-17 -53 0 -2 6 -8 9 -12 5 -11 -11 14 -38 35 -38 33 0 50 12 50 36 0 17 -7 25
-25 30 -34 8 -52 32 -31 40 9 3 23 1 31 -6 20 -17 32 -5 15 15 -16 20 -44 19
-65 -1z"/>
<path d="M1227 3183 c-11 -10 -8 -123 3 -123 6 0 10 9 10 19 0 42 37 32 53
-13 2 -6 7 -8 11 -4 4 3 3 15 -3 27 -7 13 -8 22 -1 26 17 11 11 54 -9 65 -22
11 -54 13 -64 3z m61 -34 c4 -19 -27 -34 -41 -20 -14 14 0 43 20 39 10 -2 19
-10 21 -19z"/>
<path d="M1857 3168 c-2 -7 -1 -33 2 -58 4 -32 11 -46 24 -48 9 -2 17 1 17 7
0 6 -4 11 -10 11 -5 0 -10 14 -10 30 0 17 5 30 10 30 6 0 5 8 -2 20 -15 23
-24 25 -31 8z"/>
<path d="M747 3142 c-34 -37 -12 -87 34 -80 12 2 24 9 27 16 3 11 0 12 -14 4
-21 -10 -44 -6 -44 9 0 5 13 9 29 9 39 0 47 14 21 40 -25 25 -32 25 -53 2z
m48 -12 c4 -6 -5 -10 -20 -10 -15 0 -24 4 -20 10 3 6 12 10 20 10 8 0 17 -4
20 -10z"/>
<path d="M840 3108 c0 -27 5 -48 10 -48 6 0 10 16 10 35 0 22 6 38 15 41 24 9
17 22 -10 20 -23 -1 -25 -5 -25 -48z"/>
<path d="M1020 3140 c-24 -24 -25 -43 -4 -64 17 -18 42 -20 64 -6 21 13 5 24
-18 11 -19 -10 -32 -6 -32 11 0 4 14 8 30 8 34 0 40 19 14 44 -20 21 -30 20
-54 -4z m45 -10 c3 -5 -3 -10 -14 -10 -12 0 -21 5 -21 10 0 6 6 10 14 10 8 0
18 -4 21 -10z"/>
<path d="M1133 3152 c-20 -3 -23 -9 -23 -48 0 -24 5 -44 10 -44 6 0 10 16 10
35 0 22 6 37 17 44 22 12 15 18 -14 13z"/>
<path d="M1347 3142 c-34 -37 -12 -87 34 -80 12 2 24 9 27 16 3 11 0 12 -14 4
-21 -10 -44 -6 -44 9 0 5 16 9 35 9 41 0 47 20 13 44 -28 20 -31 20 -51 -2z
m48 -12 c4 -6 -5 -10 -20 -10 -15 0 -24 4 -20 10 3 6 12 10 20 10 8 0 17 -4
20 -10z"/>
<path d="M1455 3147 c-34 -19 -7 -97 29 -84 9 4 16 -1 18 -14 7 -45 23 -15 23
43 0 60 -1 61 -28 62 -15 1 -34 -2 -42 -7z m43 -24 c13 -24 4 -43 -19 -43 -13
0 -19 7 -19 23 0 39 23 50 38 20z"/>
<path d="M1672 3144 c-25 -17 -29 -56 -8 -74 18 -15 58 -10 64 8 3 11 0 12
-16 3 -15 -8 -23 -7 -32 4 -11 13 -7 15 24 15 40 0 47 17 18 43 -23 21 -22 21
-50 1z m43 -14 c4 -6 -5 -10 -20 -10 -15 0 -24 4 -20 10 3 6 12 10 20 10 8 0
17 -4 20 -10z"/>
<path d="M1772 3151 c-21 -13 -10 -46 16 -49 12 -2 22 -7 22 -11 0 -16 -13
-20 -32 -10 -16 9 -19 8 -16 -3 3 -7 18 -13 34 -13 40 0 48 39 10 49 -36 9
-34 30 2 22 26 -6 26 -6 8 9 -23 17 -26 18 -44 6z"/>
<path d="M910 3140 c0 -24 31 -81 42 -78 12 4 41 78 34 86 -9 8 -26 -10 -26
-28 0 -32 -18 -32 -25 0 -6 28 -25 43 -25 20z"/>
<path d="M1552 3108 c3 -42 4 -43 41 -45 l37 -1 0 44 c0 51 -17 60 -22 12 -2
-22 -9 -34 -20 -36 -15 -3 -18 4 -18 32 0 20 -5 36 -11 36 -6 0 -9 -17 -7 -42z"/>
<path d="M3427 3123 c-12 -12 -7 -50 8 -63 35 -29 85 26 53 58 -13 13 -50 16
-61 5z"/>
<path d="M4700 3115 c-9 -11 -7 -16 10 -25 24 -13 18 -32 -8 -24 -14 5 -14 4
-3 -4 8 -6 20 -8 28 -5 20 8 16 31 -7 38 -11 4 -18 10 -15 15 3 5 12 7 20 3 8
-3 15 -3 15 0 0 13 -30 14 -40 2z"/>
<path d="M5035 3120 c-4 -6 -3 -10 2 -9 22 4 24 -3 9 -26 -9 -14 -13 -25 -8
-25 13 0 35 47 28 59 -9 14 -23 14 -31 1z"/>
<path d="M3560 3118 c0 -4 5 -19 11 -35 l11 -28 15 28 c8 16 12 32 8 35 -3 3
-9 -4 -12 -17 l-6 -23 -13 23 c-7 13 -13 21 -14 17z"/>
<path d="M3630 3099 c0 -11 -4 -17 -10 -14 -5 3 -10 2 -10 -4 0 -24 19 -18 29
9 6 18 6 30 0 30 -5 0 -9 -9 -9 -21z"/>
<path d="M3710 3089 c0 -16 4 -29 9 -29 5 0 8 6 7 13 0 6 4 12 9 12 6 0 9 -6
8 -14 -1 -9 2 -10 9 -3 15 15 4 38 -21 45 -18 4 -21 1 -21 -24z"/>
<path d="M4138 3090 c2 -16 6 -30 8 -30 2 0 4 14 4 30 0 17 -4 30 -8 30 -5 0
-7 -13 -4 -30z"/>
<path d="M4461 3090 c10 -28 29 -41 29 -20 0 6 -4 10 -10 10 -5 0 -10 9 -10
20 0 11 -4 20 -9 20 -6 0 -6 -12 0 -30z"/>
<path d="M4490 3110 c0 -5 5 -10 10 -10 6 0 10 5 10 10 0 6 -4 10 -10 10 -5 0
-10 -4 -10 -10z"/>
<path d="M4608 3090 c2 -16 6 -30 8 -30 2 0 4 14 4 30 0 17 -4 30 -8 30 -5 0
-7 -13 -4 -30z"/>
<path d="M3660 3094 c-11 -12 -11 -18 2 -30 12 -12 17 -13 23 -3 5 8 4 10 -3
5 -8 -5 -12 1 -12 16 0 18 2 20 10 8 5 -8 12 -11 15 -8 8 8 -3 28 -14 28 -5 0
-14 -7 -21 -16z"/>
<path d="M3801 3101 c-7 -5 -9 -11 -5 -14 5 -3 15 1 22 9 14 16 5 18 -17 5z"/>
<path d="M3857 3104 c-10 -11 -9 -44 2 -44 5 0 7 9 4 20 -5 20 11 28 20 10 3
-6 4 -5 3 2 -3 14 -20 21 -29 12z"/>
<path d="M3914 3095 c-3 -8 -4 -20 -2 -27 3 -7 7 -1 10 15 6 29 1 36 -8 12z"/>
<path d="M4007 3104 c-10 -11 -9 -44 2 -44 5 0 7 9 4 20 -5 20 11 28 20 10 3
-6 4 -5 3 2 -3 14 -20 21 -29 12z"/>
<path d="M4061 3083 c0 -25 1 -26 9 -8 12 27 12 35 0 35 -5 0 -10 -12 -9 -27z"/>
<path d="M4554 3096 c-3 -8 -4 -21 -1 -28 3 -7 6 -3 6 10 1 23 15 30 24 12 3
-6 4 -5 3 2 -4 18 -25 21 -32 4z"/>
<path d="M4634 3079 c-1 -15 3 -26 7 -23 11 6 12 41 2 47 -5 3 -8 -8 -9 -24z"/>
<path d="M4761 3101 c-9 -6 -11 -15 -6 -27 7 -17 9 -16 15 6 5 14 8 19 9 13 1
-7 6 -13 12 -13 13 0 7 22 -7 27 -5 1 -15 -1 -23 -6z"/>
<path d="M4814 3095 c-10 -26 1 -35 13 -10 6 14 7 25 2 25 -5 0 -12 -7 -15
-15z"/>
<path d="M4856 3090 c3 -14 8 -27 11 -30 5 -5 23 21 23 35 0 6 -4 4 -9 -4 -7
-11 -11 -10 -20 5 -11 17 -11 16 -5 -6z"/>
<path d="M4911 3092 c-8 -15 -7 -23 3 -31 11 -9 12 -6 8 14 -4 24 11 35 21 15
3 -6 4 -5 3 2 -4 20 -24 20 -35 0z"/>
<path d="M4964 3095 c-10 -26 1 -35 13 -10 6 14 7 25 2 25 -5 0 -12 -7 -15
-15z"/>
<path d="M3950 3093 c0 -15 19 -37 26 -31 3 4 -1 14 -10 23 -9 9 -16 13 -16 8z"/>
<path d="M4516 3081 c-4 -7 -5 -15 -2 -18 9 -9 19 4 14 18 -4 11 -6 11 -12 0z"/>
<path d="M3820 3071 c0 -7 -5 -9 -12 -5 -7 5 -8 3 -3 -5 5 -9 10 -10 18 -2 6
6 8 14 4 18 -4 3 -7 1 -7 -6z"/>
<path d="M637 2798 c8 -46 13 -48 13 -5 0 21 -4 37 -10 37 -5 0 -7 -14 -3 -32z"/>
<path d="M674 2816 c-10 -26 0 -51 21 -51 16 0 20 7 20 30 0 33 -30 49 -41 21z
m33 -30 c-4 -9 -11 -16 -17 -16 -11 0 -14 33 -3 44 11 10 26 -11 20 -28z"/>
<path d="M740 2815 c-16 -19 -3 -55 20 -55 23 0 36 36 20 55 -7 8 -16 15 -20
15 -4 0 -13 -7 -20 -15z m30 -20 c0 -14 -4 -25 -10 -25 -5 0 -10 11 -10 25 0
14 5 25 10 25 6 0 10 -11 10 -25z"/>
<path d="M693 2433 c11 -3 16 -10 13 -19 -24 -57 -19 -61 8 -6 l17 32 -28 -1
c-19 -1 -22 -3 -10 -6z"/>
<path d="M740 2426 c0 -8 7 -16 15 -20 8 -3 15 -10 15 -17 0 -6 -7 -9 -15 -5
-8 3 -15 1 -15 -4 0 -16 37 -11 44 5 3 8 -4 21 -15 29 -20 13 -20 14 -2 19 15
4 14 5 -4 6 -14 1 -23 -5 -23 -13z"/>
<path d="M4620 2124 c-158 -34 -259 -112 -354 -275 -66 -112 -93 -147 -130
-166 -44 -23 -162 -20 -291 7 -146 31 -263 32 -328 2 -56 -25 -172 -114 -181
-139 -4 -9 14 3 38 25 80 74 148 111 221 121 68 10 102 6 330 -34 94 -16 170
-13 215 10 39 20 74 62 128 155 28 47 61 99 74 117 45 59 120 112 208 145 76
28 96 31 190 31 91 0 115 -3 180 -28 41 -15 85 -34 97 -42 13 -9 23 -11 23 -6
0 16 -112 62 -187 78 -83 18 -148 18 -233 -1z"/>
<path d="M682 2048 c-17 -17 -15 -25 9 -31 12 -3 18 -10 15 -16 -4 -6 -14 -8
-24 -5 -15 5 -15 5 1 -6 9 -6 22 -8 27 -5 16 10 12 33 -7 44 -17 10 -17 10 0
11 10 0 15 5 12 10 -8 13 -18 13 -33 -2z"/>
<path d="M742 2048 c-17 -17 -15 -43 4 -58 12 -11 18 -10 31 3 14 13 14 21 5
42 -13 28 -22 31 -40 13z m28 -28 c0 -11 -4 -20 -10 -20 -5 0 -10 9 -10 20 0
11 5 20 10 20 6 0 10 -9 10 -20z"/>
<path d="M680 1650 c0 -5 7 -7 15 -4 8 4 15 2 15 -4 0 -5 -7 -15 -15 -22 -22
-18 -18 -30 8 -30 17 0 19 2 7 10 -12 7 -12 12 -2 22 18 18 14 38 -8 38 -11 0
-20 -4 -20 -10z"/>
<path d="M740 1645 c0 -8 7 -15 15 -15 8 0 15 -7 15 -16 0 -11 -5 -14 -17 -9
-14 5 -15 4 -6 -6 10 -10 15 -10 27 0 18 15 10 41 -13 42 -12 0 -12 2 4 9 19
8 19 9 -2 9 -14 1 -23 -5 -23 -14z"/>
<path d="M2381 1554 c-41 -22 -108 -104 -161 -200 -58 -103 -49 -103 13 1 128
217 205 246 398 154 46 -21 75 -32 64 -23 -11 9 -49 30 -85 47 -82 38 -178 46
-229 21z"/>
<path d="M3249 1484 c-39 -43 -135 -101 -188 -114 -62 -15 -131 -2 -221 41
-34 16 -65 28 -67 26 -8 -8 160 -78 201 -83 24 -4 67 -1 95 6 67 16 227 127
209 145 -2 3 -15 -7 -29 -21z"/>
<path d="M698 1275 c-7 -7 3 -65 12 -65 10 0 11 58 1 65 -5 2 -10 2 -13 0z"/>
<path d="M742 1268 c-17 -17 -15 -43 4 -59 14 -11 18 -10 30 6 8 10 14 24 14
30 0 12 -20 35 -30 35 -3 0 -11 -5 -18 -12z m28 -28 c0 -11 -4 -20 -10 -20 -5
0 -10 9 -10 20 0 11 5 20 10 20 6 0 10 -9 10 -20z"/>
<path d="M2082 1115 c-52 -87 -112 -156 -148 -171 -62 -26 -206 -13 -284 25
-24 12 -24 11 -5 -4 33 -26 125 -48 196 -48 84 1 132 25 180 90 47 61 103 153
97 158 -2 2 -18 -20 -36 -50z"/>
<path d="M1274 1036 c-104 -38 -294 -154 -294 -178 0 -4 30 14 68 41 117 86
266 151 341 151 22 0 72 -13 112 -30 81 -33 88 -35 73 -20 -21 21 -147 60
-192 59 -26 0 -74 -10 -108 -23z"/>
<path d="M735 871 c-8 -26 4 -51 25 -51 10 0 21 7 24 16 10 25 -3 54 -24 54
-10 0 -21 -8 -25 -19z m35 -16 c0 -14 -4 -25 -9 -25 -12 0 -19 21 -13 38 8 21
22 13 22 -13z"/>
<path d="M1242 688 c-16 -16 -15 -55 2 -61 30 -12 49 40 23 62 -10 8 -17 7
-25 -1z m26 -30 c-2 -13 -7 -23 -13 -23 -5 0 -11 10 -13 23 -2 15 2 22 13 22
11 0 15 -7 13 -22z"/>
<path d="M1632 688 c-24 -24 -5 -72 24 -61 18 7 18 47 1 62 -10 8 -17 7 -25
-1z m26 -30 c-2 -13 -7 -23 -13 -23 -5 0 -11 10 -13 23 -2 15 2 22 13 22 11 0
15 -7 13 -22z"/>
<path d="M1723 693 c-7 -3 -13 -9 -13 -14 0 -4 7 -6 15 -3 19 8 19 -10 0 -26
-17 -15 -11 -30 13 -30 14 0 15 2 2 10 -12 7 -12 11 3 28 14 15 15 21 5 29 -7
6 -19 8 -25 6z"/>
<path d="M1972 688 c-16 -16 -15 -43 3 -58 19 -16 35 -5 35 24 0 31 -22 50
-38 34z m28 -27 c0 -23 -16 -36 -25 -21 -9 14 1 40 15 40 5 0 10 -9 10 -19z"/>
<path d="M2060 690 c-13 -8 -12 -10 3 -10 10 0 16 -4 12 -9 -3 -5 -1 -12 5
-16 16 -10 1 -25 -18 -18 -13 4 -14 3 -6 -6 17 -19 43 -3 40 25 -4 33 -17 46
-36 34z"/>
<path d="M2833 693 c-16 -6 -17 -59 -3 -68 15 -9 40 13 40 35 0 21 -20 39 -37
33z m22 -36 c0 -26 -20 -25 -23 2 -3 16 1 22 10 19 7 -3 13 -12 13 -21z"/>
<path d="M3223 693 c-16 -6 -17 -59 -3 -68 15 -9 40 13 40 35 0 21 -20 39 -37
33z m21 -22 c8 -13 -4 -42 -15 -35 -12 7 -12 44 0 44 6 0 12 -4 15 -9z"/>
<path d="M3299 673 c-8 -20 -6 -30 6 -42 13 -14 17 -14 31 0 13 14 13 17 0 28
-12 10 -14 9 -9 -8 3 -12 1 -21 -6 -21 -19 0 -13 48 7 52 16 3 16 4 -1 11 -13
5 -20 0 -28 -20z"/>
<path d="M3632 688 c-24 -24 -5 -72 24 -61 18 7 18 47 1 62 -10 8 -17 7 -25
-1z m26 -30 c-2 -13 -7 -23 -13 -23 -5 0 -11 10 -13 23 -2 15 2 22 13 22 11 0
15 -7 13 -22z"/>
<path d="M3710 689 c0 -5 7 -9 16 -9 15 0 15 -2 0 -25 -9 -14 -13 -25 -8 -25
7 0 32 42 32 54 0 2 -9 6 -20 9 -11 3 -20 1 -20 -4z"/>
<path d="M3991 687 c-23 -23 -4 -71 25 -60 8 3 14 18 14 33 0 30 -21 45 -39
27z m27 -29 c-2 -13 -7 -23 -13 -23 -5 0 -11 10 -13 23 -2 15 2 22 13 22 11 0
15 -7 13 -22z"/>
<path d="M4401 687 c-16 -16 -14 -42 5 -58 14 -11 18 -11 29 4 24 33 -7 81
-34 54z m29 -26 c0 -11 -4 -22 -9 -25 -11 -7 -23 22 -15 35 9 16 24 10 24 -10z"/>
<path d="M4490 685 c-10 -13 -11 -18 -1 -28 10 -9 11 -8 6 6 -5 12 -2 17 10
17 11 0 15 -7 13 -22 -2 -17 -9 -22 -23 -20 -16 2 -17 1 -5 -7 31 -21 56 33
26 58 -10 9 -16 8 -26 -4z"/>
<path d="M4772 688 c-24 -24 -5 -72 24 -61 18 7 18 47 1 62 -10 8 -17 7 -25
-1z m26 -30 c-2 -13 -7 -23 -13 -23 -5 0 -11 10 -13 23 -2 15 2 22 13 22 11 0
15 -7 13 -22z"/>
<path d="M4902 688 c-16 -16 -15 -55 2 -61 30 -12 49 40 23 62 -10 8 -17 7
-25 -1z m23 -31 c0 -26 -20 -25 -23 2 -3 16 1 22 10 19 7 -3 13 -12 13 -21z"/>
<path d="M1198 660 c2 -16 6 -30 8 -30 2 0 4 14 4 30 0 17 -4 30 -8 30 -5 0
-7 -13 -4 -30z"/>
<path d="M1328 660 c2 -16 6 -30 8 -30 2 0 4 14 4 30 0 17 -4 30 -8 30 -5 0
-7 -13 -4 -30z"/>
<path d="M1588 660 c2 -16 6 -30 8 -30 2 0 4 14 4 30 0 17 -4 30 -8 30 -5 0
-7 -13 -4 -30z"/>
<path d="M1928 660 c2 -16 6 -30 8 -30 2 0 4 14 4 30 0 17 -4 30 -8 30 -5 0
-7 -13 -4 -30z"/>
<path d="M2337 678 c6 -7 9 -21 8 -30 -2 -10 1 -18 6 -18 5 0 8 14 7 30 -1 18
-8 30 -16 30 -10 0 -11 -4 -5 -12z"/>
<path d="M2376 674 c-7 -17 10 -54 24 -54 14 0 32 39 26 56 -7 19 -42 18 -50
-2z m38 -3 c8 -13 -4 -42 -15 -35 -12 7 -12 44 0 44 6 0 12 -4 15 -9z"/>
<path d="M2479 669 c-9 -17 -8 -23 2 -30 15 -10 31 -8 30 4 -1 4 -1 16 -1 27
0 26 -16 26 -31 -1z m21 -9 c0 -5 -5 -10 -11 -10 -5 0 -7 5 -4 10 3 6 8 10 11
10 2 0 4 -4 4 -10z"/>
<path d="M2786 663 c10 -40 14 -41 14 -5 0 18 -5 32 -10 32 -6 0 -8 -11 -4
-27z"/>
<path d="M2910 675 c0 -8 7 -15 15 -15 8 0 15 -7 15 -16 0 -11 -5 -14 -17 -9
-14 5 -15 4 -6 -6 10 -10 16 -9 29 2 15 12 14 15 -5 30 -19 16 -20 18 -4 22
14 4 13 5 -4 6 -14 1 -23 -5 -23 -14z"/>
<path d="M3176 663 c10 -40 14 -41 14 -5 0 18 -5 32 -10 32 -6 0 -8 -11 -4
-27z"/>
<path d="M3588 660 c2 -16 6 -30 8 -30 2 0 4 14 4 30 0 17 -4 30 -8 30 -5 0
-7 -13 -4 -30z"/>
<path d="M3948 660 c2 -16 6 -30 8 -30 2 0 4 14 4 30 0 17 -4 30 -8 30 -5 0
-7 -13 -4 -30z"/>
<path d="M4072 660 c-1 -33 8 -43 31 -34 9 3 14 15 13 30 -3 25 -16 46 -16 26
0 -7 -5 -12 -11 -12 -5 0 -7 5 -4 10 3 6 2 10 -3 10 -5 0 -9 -13 -10 -30z m24
-27 c-10 -10 -19 5 -10 18 6 11 8 11 12 0 2 -7 1 -15 -2 -18z"/>
<path d="M4358 660 c2 -16 7 -30 11 -30 4 0 6 14 3 30 -2 17 -7 30 -11 30 -4
0 -6 -13 -3 -30z"/>
<path d="M4728 660 c2 -16 6 -30 8 -30 2 0 4 14 4 30 0 17 -4 30 -8 30 -5 0
-7 -13 -4 -30z"/>
<path d="M4858 660 c2 -16 6 -30 8 -30 2 0 4 14 4 30 0 17 -4 30 -8 30 -5 0
-7 -13 -4 -30z"/>
<path d="M3255 290 c-3 -5 -1 -10 4 -10 6 0 11 5 11 10 0 6 -2 10 -4 10 -3 0
-8 -4 -11 -10z"/>
<path d="M3725 290 c-3 -5 -1 -10 4 -10 6 0 11 5 11 10 0 6 -2 10 -4 10 -3 0
-8 -4 -11 -10z"/>
</g>
</svg>
