<?xml version="1.0" standalone="no"?>
<!DOCTYPE svg PUBLIC "-//W3C//DTD SVG 20010904//EN"
 "http://www.w3.org/TR/2001/REC-SVG-20010904/DTD/svg10.dtd">
<svg version="1.0" xmlns="http://www.w3.org/2000/svg"
 width="248.000000pt" height="189.000000pt" viewBox="0 0 248.000000 189.000000"
 preserveAspectRatio="xMidYMid meet">

<g transform="translate(0.000000,189.000000) scale(0.100000,-0.100000)"
fill="#000000" stroke="none">
<path d="M1245 1627 c-84 -22 -157 -61 -218 -117 -50 -46 -58 -57 -55 -84 4
-43 34 -45 84 -5 57 46 150 87 226 99 82 13 182 -5 268 -47 153 -75 252 -271
222 -437 -17 -89 -15 -103 13 -122 23 -15 29 -15 94 5 223 68 383 -47 369
-264 -12 -179 -156 -273 -357 -231 -152 32 -275 133 -493 406 -63 80 -169 197
-235 261 -104 101 -133 123 -214 163 -111 55 -200 76 -325 76 -237 0 -425
-111 -514 -304 -58 -124 -72 -234 -46 -356 23 -107 62 -177 145 -260 188 -188
452 -220 746 -93 111 48 182 93 258 163 46 42 57 58 55 79 -5 42 -40 39 -95
-7 -97 -80 -260 -149 -409 -172 -146 -23 -302 18 -391 103 -202 190 -158 528
84 647 60 30 79 34 168 38 120 5 189 -7 281 -52 123 -60 251 -183 429 -416 48
-63 143 -169 210 -236 99 -99 135 -128 196 -158 164 -80 342 -86 481 -15 67
34 145 115 181 188 30 63 32 72 32 181 0 110 -2 119 -32 181 -40 81 -102 140
-191 182 -64 31 -72 32 -193 32 l-126 0 -6 100 c-9 164 -48 248 -162 353 -94
86 -191 124 -330 128 -60 2 -120 -2 -150 -9z"/>
</g>
</svg>
