<?xml version="1.0" standalone="no"?>
<!DOCTYPE svg PUBLIC "-//W3C//DTD SVG 20010904//EN"
 "http://www.w3.org/TR/2001/REC-SVG-20010904/DTD/svg10.dtd">
<svg version="1.0" xmlns="http://www.w3.org/2000/svg"
 width="570.000000pt" height="344.000000pt" viewBox="0 0 570.000000 344.000000"
 preserveAspectRatio="xMidYMid meet">

<g transform="translate(0.000000,344.000000) scale(0.100000,-0.100000)"
fill="#000000" stroke="none">
<path d="M510 3217 c0 -32 56 -120 102 -162 129 -116 330 -106 448 21 39 43
79 114 80 142 0 9 -70 12 -315 12 -252 0 -315 -3 -315 -13z m251 -76 c15 7 24
7 35 -2 11 -9 14 -9 14 0 0 7 5 9 10 6 6 -3 10 -15 10 -26 0 -26 23 -24 35 3
13 28 29 33 49 13 10 -10 16 -12 16 -4 0 9 4 8 15 -1 10 -9 15 -9 15 -1 0 6 5
11 10 11 6 0 10 -11 10 -25 0 -26 -14 -33 -26 -14 -4 8 -9 7 -15 -2 -7 -12 -9
-12 -9 0 0 9 -4 10 -12 3 -7 -5 -44 -10 -83 -10 -38 0 -76 5 -82 10 -9 7 -13
6 -13 -3 0 -11 -3 -11 -11 1 -8 11 -12 12 -16 3 -8 -22 -23 -14 -23 12 0 14 5
25 10 25 6 0 10 -4 10 -10 0 -18 20 -11 21 8 0 10 3 12 6 5 3 -10 10 -10 24
-2z"/>
<path d="M762 3118 c6 -18 28 -21 28 -4 0 9 -7 16 -16 16 -9 0 -14 -5 -12 -12z"/>
<path d="M880 3114 c0 -9 5 -14 12 -12 18 6 21 28 4 28 -9 0 -16 -7 -16 -16z"/>
<path d="M2521 3076 c-9 -11 -9 -16 1 -22 7 -4 10 -4 6 1 -4 4 -3 14 3 22 6 7
9 13 6 13 -2 0 -10 -6 -16 -14z"/>
<path d="M2591 3076 c-8 -10 -9 -16 -1 -21 6 -4 9 -1 8 7 -2 7 3 12 10 10 8
-1 11 2 7 8 -8 13 -10 13 -24 -4z"/>
<path d="M2921 3076 c-9 -10 -9 -16 -1 -21 6 -4 14 -4 17 -1 4 3 1 6 -7 6 -10
0 -10 3 0 15 7 8 10 15 7 15 -2 0 -10 -6 -16 -14z"/>
<path d="M3012 3070 c0 -14 2 -19 5 -12 2 6 2 18 0 25 -3 6 -5 1 -5 -13z"/>
<path d="M3635 3079 c-4 -6 -5 -12 -2 -15 2 -3 7 2 10 11 7 17 1 20 -8 4z"/>
<path d="M4334 3079 c-3 -6 -1 -16 4 -21 8 -8 11 -5 9 11 -1 24 -3 25 -13 10z"/>
<path d="M4377 3077 c-3 -8 1 -14 9 -14 16 0 19 13 5 21 -5 3 -11 0 -14 -7z"/>
<path d="M4415 3080 c3 -5 8 -10 11 -10 2 0 4 5 4 10 0 6 -5 10 -11 10 -5 0
-7 -4 -4 -10z"/>
<path d="M4440 3075 c0 -8 5 -15 10 -15 6 0 10 7 10 15 0 8 -4 15 -10 15 -5 0
-10 -7 -10 -15z"/>
<path d="M4476 3082 c-9 -15 9 -31 24 -22 13 8 12 10 -3 10 -10 0 -15 5 -12
10 3 6 4 10 1 10 -3 0 -7 -4 -10 -8z"/>
<path d="M4522 3073 c2 -10 10 -18 18 -18 22 0 18 29 -3 33 -14 3 -18 -1 -15
-15z m28 3 c0 -3 -4 -8 -10 -11 -5 -3 -10 -1 -10 4 0 6 5 11 10 11 6 0 10 -2
10 -4z"/>
<path d="M4570 3075 c0 -8 5 -15 10 -15 6 0 10 7 10 15 0 8 -4 15 -10 15 -5 0
-10 -7 -10 -15z"/>
<path d="M4631 3074 c0 -11 3 -14 6 -6 3 7 2 16 -1 19 -3 4 -6 -2 -5 -13z"/>
<path d="M4667 3070 c3 -11 9 -17 14 -15 10 7 1 35 -11 35 -5 0 -6 -9 -3 -20z"/>
<path d="M4730 3080 c0 -5 5 -10 10 -10 6 0 10 5 10 10 0 6 -4 10 -10 10 -5 0
-10 -4 -10 -10z"/>
<path d="M1960 3070 c0 -6 7 -10 15 -10 8 0 15 2 15 4 0 2 -7 6 -15 10 -8 3
-15 1 -15 -4z"/>
<path d="M2052 3068 c2 -5 8 -9 13 -9 5 0 11 4 13 9 1 5 -4 9 -13 9 -9 0 -14
-4 -13 -9z"/>
<path d="M2101 3064 c0 -11 3 -14 6 -6 3 7 2 16 -1 19 -3 4 -6 -2 -5 -13z"/>
<path d="M2327 3064 c2 -7 11 -10 19 -7 19 7 18 10 -5 16 -13 3 -18 1 -14 -9z"/>
<path d="M2390 3070 c-8 -5 -12 -11 -9 -14 2 -3 11 -1 19 4 8 5 12 11 9 14 -2
3 -11 1 -19 -4z"/>
<path d="M2431 3064 c0 -11 3 -14 6 -6 3 7 2 16 -1 19 -3 4 -6 -2 -5 -13z"/>
<path d="M2640 3071 c0 -5 7 -11 15 -15 8 -3 15 -1 15 3 0 5 -7 11 -15 15 -8
3 -15 1 -15 -3z"/>
<path d="M2974 3065 c8 -8 18 -15 22 -15 3 0 1 7 -6 15 -7 8 -17 15 -22 15 -5
0 -3 -7 6 -15z"/>
<path d="M3037 3067 c-3 -8 1 -14 9 -14 16 0 19 13 5 21 -5 3 -11 0 -14 -7z"/>
<path d="M3480 3071 c0 -5 7 -11 15 -15 8 -3 15 -1 15 3 0 5 -7 11 -15 15 -8
3 -15 1 -15 -3z"/>
<path d="M3580 3070 c0 -13 12 -19 26 -13 21 8 17 19 -6 19 -11 0 -20 -3 -20
-6z"/>
<path d="M3680 3065 c0 -8 2 -15 4 -15 2 0 6 7 10 15 3 8 1 15 -4 15 -6 0 -10
-7 -10 -15z"/>
<path d="M3710 3065 c0 -8 5 -15 10 -15 6 0 10 7 10 15 0 8 -4 15 -10 15 -5 0
-10 -7 -10 -15z"/>
<path d="M3530 3060 c-9 -6 -10 -10 -3 -10 6 0 15 5 18 10 8 12 4 12 -15 0z"/>
<path d="M5075 3050 c3 -5 8 -10 11 -10 2 0 4 5 4 10 0 6 -5 10 -11 10 -5 0
-7 -4 -4 -10z"/>
<path d="M5142 2714 c-12 -8 -22 -22 -22 -31 0 -13 3 -13 15 -3 10 9 15 9 15
1 0 -6 9 -11 20 -11 13 0 20 7 20 20 0 11 5 20 10 20 6 0 10 5 10 10 0 15 -43
12 -68 -6z"/>
<path d="M4411 2658 c-5 -13 -5 -27 0 -32 14 -15 11 -26 -6 -26 -22 0 -18 -23
8 -48 27 -26 57 -31 37 -7 -15 18 1 20 18 3 7 -7 12 -8 12 -2 0 5 5 2 10 -6 8
-12 10 -9 10 13 0 16 -4 26 -10 22 -6 -3 -10 5 -10 19 0 13 -3 33 -7 43 -6 16
-5 17 13 3 12 -9 11 -5 -5 13 -30 33 -59 35 -70 5z m54 -48 c-3 -5 -13 -10
-21 -10 -8 0 -14 5 -14 10 0 6 9 10 21 10 11 0 17 -4 14 -10z"/>
<path d="M5060 2662 c0 -9 25 -33 48 -46 25 -14 11 11 -18 32 -16 13 -30 19
-30 14z"/>
<path d="M4075 2610 c21 -22 41 -40 44 -40 3 0 -13 18 -34 40 -21 22 -41 40
-44 40 -3 0 13 -18 34 -40z"/>
<path d="M5209 2637 c20 -20 12 -27 -29 -27 -22 0 -40 -4 -40 -10 0 -6 27 -10
61 -10 59 0 60 0 57 26 -2 21 -9 28 -32 30 -22 2 -26 0 -17 -9z"/>
<path d="M4315 2597 c-12 -28 4 -83 33 -120 l28 -35 12 30 c6 16 8 37 5 46 -6
15 -5 15 10 3 9 -7 17 -9 17 -3 0 5 -12 18 -27 27 -16 10 -38 29 -50 44 -19
23 -22 24 -28 8z"/>
<path d="M4625 2593 c-16 -8 -37 -22 -47 -30 -14 -13 -18 -12 -28 4 -10 15
-10 13 -6 -12 l6 -30 -15 28 c-19 33 -25 34 -19 3 2 -14 -3 -31 -11 -40 -22
-22 -19 -33 27 -88 40 -47 41 -50 23 -61 -11 -6 -30 -21 -42 -33 -21 -21 -22
-30 -18 -91 7 -87 13 -112 30 -129 11 -12 14 -9 20 16 7 30 25 51 25 29 0 -9
3 -10 10 -3 7 7 7 33 0 80 -15 105 -14 115 10 79 31 -46 21 -175 -14 -201 -13
-9 -7 -17 38 -48 40 -27 55 -45 60 -68 9 -46 7 -88 -4 -88 -6 0 -8 11 -4 26
l7 26 -27 -27 c-14 -14 -31 -23 -38 -19 -7 4 -8 3 -4 -4 4 -7 -2 -22 -13 -34
l-21 -22 0 23 c0 21 -4 23 -33 18 -52 -8 -60 3 -38 49 22 47 33 124 21 144 -8
12 -10 10 -10 -7 0 -39 -20 -25 -21 15 -1 74 -10 186 -14 191 -3 2 -16 -1 -29
-8 -13 -8 -29 -10 -36 -6 -7 4 -14 -1 -17 -14 -4 -15 -14 -21 -37 -22 -17 -1
-23 -3 -13 -6 9 -2 17 -8 17 -12 0 -3 14 -15 30 -24 31 -19 40 -37 17 -37 -7
0 -18 9 -25 20 -13 22 -37 18 -47 -8 -5 -14 -4 -15 6 -4 7 6 20 12 29 12 10
-1 7 -8 -12 -24 -23 -21 -102 -46 -143 -46 -25 0 -27 -20 -3 -29 18 -7 26 -5
39 12 15 18 19 19 33 6 8 -8 22 -19 29 -26 15 -12 12 -63 -4 -63 -5 0 -9 -5
-9 -11 0 -23 86 -3 134 31 26 17 50 29 54 25 4 -4 1 -10 -6 -12 -7 -3 -38 -27
-69 -54 -31 -27 -60 -49 -64 -49 -9 0 -6 -37 6 -83 6 -24 11 -27 29 -22 39 13
81 16 95 6 19 -12 -2 -64 -37 -91 -29 -24 -90 -26 -118 -5 -18 14 -18 15 9 40
15 15 26 32 23 38 -3 7 -9 20 -12 30 -11 32 -22 18 -39 -53 -18 -72 -46 -120
-71 -120 -14 0 -74 -75 -74 -93 0 -5 -19 -27 -42 -49 -24 -21 -32 -32 -18 -24
l25 15 -3 -37 c-4 -41 1 -44 118 -81 70 -22 92 -18 84 15 -4 14 -2 24 5 24 6
0 11 -4 11 -8 0 -5 7 -17 16 -28 8 -10 12 -13 9 -6 -6 11 -3 12 11 4 22 -11
44 -5 44 11 0 6 15 26 33 45 l32 33 -35 29 c-27 22 -38 26 -48 17 -11 -8 -13
-7 -10 5 1 8 -8 25 -22 38 l-25 21 35 -18 c19 -10 39 -23 45 -29 16 -18 70
-50 62 -37 -5 7 -4 21 2 30 9 17 10 17 16 1 4 -10 5 -25 1 -33 -3 -8 -1 -15 5
-15 6 0 8 -4 4 -10 -3 -5 6 -17 20 -26 14 -9 25 -21 25 -27 0 -6 -11 0 -25 13
-14 13 -26 22 -28 19 -20 -31 -44 -100 -37 -104 22 -13 8 -25 -29 -25 -24 0
-48 8 -66 22 -20 15 -30 18 -33 10 -2 -7 -7 -10 -11 -8 -4 3 -7 -4 -8 -15 -2
-26 32 -48 89 -55 26 -4 48 -10 48 -13 0 -4 -13 -20 -30 -36 -56 -54 -33 -108
44 -103 38 2 72 -21 87 -59 6 -17 17 -23 39 -23 16 0 30 5 30 12 0 6 3 9 6 5
8 -7 34 17 34 32 0 6 3 11 8 12 52 4 92 2 92 -6 0 -5 -15 -25 -32 -44 -21 -21
-26 -32 -15 -28 11 4 17 1 17 -7 0 -8 21 -32 46 -55 25 -22 49 -52 54 -68 6
-22 9 -12 10 47 l3 75 9 -80 c5 -44 13 -84 19 -90 6 -6 7 8 3 39 l-7 48 26
-17 c15 -9 27 -14 27 -10 0 12 -34 65 -42 65 -4 0 -8 7 -8 16 0 9 -14 29 -31
45 -40 37 -29 37 30 -1 l46 -30 -45 40 c-34 32 -41 43 -30 50 17 11 30 4 30
-15 0 -8 16 -29 35 -46 19 -17 33 -37 32 -43 -1 -6 4 -10 10 -9 7 2 12 0 11
-5 -1 -4 5 -20 15 -37 18 -34 22 -17 7 33 -8 29 -7 33 7 28 11 -5 13 -3 7 6
-21 28 2 138 25 124 4 -3 16 20 26 50 10 30 22 54 27 54 4 0 8 13 8 29 0 22
-6 31 -30 41 -39 16 -90 69 -83 86 3 8 14 14 25 14 10 0 17 4 14 8 -2 4 -1 14
4 22 6 10 -1 25 -23 49 -17 20 -34 35 -39 34 -4 -2 -5 4 -2 12 7 16 48 45 66
45 6 0 25 12 40 27 38 37 38 77 -1 98 -18 9 -32 11 -36 6 -8 -14 -89 -25 -120
-17 -16 4 -23 11 -19 18 5 8 -12 9 -62 4 -48 -4 -72 -12 -79 -23 -5 -9 -17
-23 -26 -30 -13 -12 -14 -22 -6 -59 6 -24 13 -44 16 -44 3 0 16 16 29 35 12
19 29 35 37 35 23 0 18 -18 -10 -36 l-26 -17 22 -23 c12 -13 20 -26 17 -29 -3
-3 -13 6 -22 21 -17 25 -18 25 -37 8 -20 -18 -27 -40 -9 -29 6 3 10 -3 10 -14
l0 -21 -32 20 c-43 26 -45 26 -58 -15 -6 -18 -22 -50 -36 -71 -21 -30 -23 -39
-12 -53 12 -15 11 -15 -7 -1 -11 8 -23 19 -26 24 -12 16 0 83 22 122 31 54 47
66 72 53 15 -9 18 -8 11 3 -4 7 3 4 16 -7 l23 -20 -7 25 c-3 14 -9 37 -12 52
-4 17 -14 28 -28 30 -47 7 -20 98 29 98 32 0 41 18 19 35 -18 13 -17 14 5 8
17 -4 22 -3 17 5 -4 7 -4 33 0 59 5 38 9 44 15 28 4 -11 8 -16 8 -11 1 5 7 3
15 -4 14 -11 11 -44 -3 -36 -4 3 -7 -4 -7 -15 0 -10 6 -19 14 -19 7 0 27 -13
42 -29 35 -34 46 -27 56 37 4 29 14 46 28 54 17 9 19 8 9 -3 -7 -7 -13 -26
-13 -42 0 -24 3 -27 14 -18 10 8 16 9 21 1 10 -17 25 -11 34 14 6 15 20 25 40
29 16 4 35 15 40 26 10 18 7 19 -100 19 l-111 -1 -19 29 c-10 16 -24 37 -31
46 -9 13 -10 20 -1 29 8 8 20 2 46 -25 20 -20 40 -36 46 -36 6 0 11 -6 12 -12
1 -19 37 84 38 109 1 19 4 20 26 10 14 -7 25 -15 25 -19 0 -5 21 -8 48 -9 42
0 44 -2 20 -10 -19 -7 -36 -6 -62 5 -19 8 -37 12 -40 8 -8 -14 -17 -77 -9 -66
6 8 19 8 48 -1 l40 -12 -27 -11 c-16 -6 -28 -13 -28 -15 0 -9 131 0 141 10 5
5 11 52 12 104 2 90 1 93 -21 99 -33 7 -31 22 8 48 34 23 90 30 90 11 0 -6 10
-9 23 -7 16 2 22 10 22 31 1 15 -2 27 -6 27 -3 0 -5 12 -3 26 4 42 -13 74 -46
85 -16 6 -30 15 -30 20 0 5 -4 9 -8 9 -5 0 -6 -15 -4 -32 5 -30 3 -32 -12 -19
-13 11 -22 11 -41 3 -14 -6 -32 -9 -40 -6 -10 4 -15 0 -15 -10 0 -9 8 -16 18
-17 14 -1 14 -2 -3 -7 -47 -16 -99 -61 -100 -87 0 -5 -9 -9 -20 -7 -20 4 -20
3 -1 -11 18 -13 14 -15 -50 -22 -38 -3 -94 -15 -124 -25 -30 -10 -57 -17 -59
-14 -2 2 2 4 10 5 8 1 3 4 -11 8 -21 6 -25 13 -27 51 -6 139 -7 151 -21 145
-10 -3 -11 1 -7 16 5 15 4 19 -4 14 -8 -5 -10 1 -5 19 6 26 -8 37 -21 16 -3
-5 -10 -10 -16 -10 -5 0 6 24 25 53 24 37 35 67 39 105 2 28 1 52 -2 52 -3 -1
-19 -8 -36 -17z m490 -291 c-3 -3 -11 0 -18 7 -9 10 -8 11 6 5 10 -3 15 -9 12
-12z m-120 -103 c-6 -16 0 -27 21 -44 16 -13 25 -27 21 -32 -5 -4 -18 4 -29
20 -15 21 -25 26 -46 22 -24 -5 -25 -4 -5 4 12 5 24 19 28 30 3 12 9 21 11 21
3 0 2 -10 -1 -21z m-525 -33 c0 -8 -9 -18 -20 -21 -16 -5 -19 -12 -14 -28 6
-19 5 -20 -10 -5 -9 9 -16 20 -16 25 0 6 41 36 58 42 1 1 2 -5 2 -13z m384
-26 c-12 -5 -29 -19 -38 -32 -9 -12 -16 -18 -16 -12 0 17 40 54 58 53 13 0 12
-2 -4 -9z m-125 -63 c13 -1 26 -7 28 -13 5 -16 -18 -72 -24 -56 -3 6 -13 12
-24 12 -23 0 -73 46 -65 59 3 4 18 6 33 4 16 -3 39 -5 52 -6z m301 -7 c-8 -5
-19 -10 -25 -10 -5 0 -3 5 5 10 8 5 20 10 25 10 6 0 3 -5 -5 -10z m90 -70 c0
-5 -2 -10 -4 -10 -3 0 -8 5 -11 10 -3 6 -1 10 4 10 6 0 11 -4 11 -10z m-383
-52 c-3 -8 -6 -5 -6 6 -1 11 2 17 5 13 3 -3 4 -12 1 -19z m73 -93 c-6 -15 -13
-26 -16 -23 -2 3 0 18 6 33 6 15 13 26 16 23 2 -3 0 -18 -6 -33z m70 25 c0 -5
-4 -10 -10 -10 -5 0 -10 5 -10 10 0 6 5 10 10 10 6 0 10 -4 10 -10z m-20 -169
c0 -16 -14 -20 -27 -10 -19 17 -16 28 7 22 11 -3 20 -9 20 -12z m8 -76 c-2
-28 -8 -45 -16 -45 -12 0 -11 15 5 73 8 31 14 18 11 -28z m-530 18 c8 17 11
18 11 5 1 -18 -65 -144 -80 -154 -16 -10 -10 10 15 47 35 51 35 66 1 95 l-30
26 36 -21 36 -21 11 23z m101 -35 c-7 -13 -14 -18 -16 -11 -3 7 1 22 8 35 7
13 14 18 16 11 3 -7 -1 -22 -8 -35z m146 5 c-31 -23 -82 -48 -68 -32 10 10 9
17 -5 33 -17 21 -17 21 5 2 22 -18 23 -18 49 3 15 12 30 19 33 15 3 -3 -3 -12
-14 -21z m-355 -17 c0 -3 -4 -8 -10 -11 -5 -3 -10 -1 -10 4 0 6 5 11 10 11 6
0 10 -2 10 -4z m632 -86 c3 -16 1 -30 -4 -30 -4 0 -8 14 -8 30 0 17 2 30 4 30
2 0 6 -13 8 -30z m-22 -40 c0 -5 -4 -10 -9 -10 -6 0 -13 5 -16 10 -3 6 1 10 9
10 9 0 16 -4 16 -10z m-65 -75 c0 -21 -2 -23 -11 -11 -8 11 -14 12 -22 4 -8
-8 -9 -5 -5 11 8 30 38 27 38 -4z m133 -50 c40 -82 42 -108 6 -71 -15 14 -33
26 -41 26 -8 0 -11 5 -8 10 4 6 10 8 15 5 16 -10 22 16 7 33 -18 21 -31 62
-20 62 5 0 23 -29 41 -65z m-195 -61 l-5 -61 -51 -7 c-61 -7 -74 6 -46 44 11
14 21 36 22 47 1 16 5 19 16 13 10 -5 21 0 34 17 27 34 35 19 30 -53z m261
-110 c19 -50 -29 -61 -93 -21 l-36 22 40 6 c69 11 83 9 89 -7z m-343 -26 c11
-21 11 -22 -4 -9 -10 7 -17 17 -17 22 0 15 9 10 21 -13z"/>
<path d="M3954 2520 c-1 -73 -33 -139 -95 -202 -58 -58 -113 -86 -198 -102
l-66 -13 35 -21 c126 -78 339 57 390 246 10 38 9 49 -9 85 -11 23 -28 47 -38
53 -16 10 -18 6 -19 -46z"/>
<path d="M4130 2552 c0 -5 9 -17 20 -27 45 -41 34 -57 -209 -298 -148 -147
-236 -227 -249 -227 -11 0 -35 12 -54 26 -20 16 -16 10 10 -14 58 -55 92 -61
141 -28 20 14 121 111 223 214 103 103 185 184 182 181 -2 -4 1 -19 7 -33 15
-31 49 -35 49 -6 0 11 5 20 10 20 6 0 10 -4 10 -10 0 -5 9 -10 20 -10 23 0 28
38 8 58 -10 10 -8 14 10 18 12 4 22 10 22 15 0 14 -27 11 -42 -5 -8 -7 -28
-15 -46 -18 -28 -4 -31 -2 -26 16 3 15 -8 40 -36 79 -40 56 -50 65 -50 49z"/>
<path d="M5030 2530 c0 -5 5 -10 10 -10 6 0 15 -12 21 -27 7 -16 13 -23 16
-15 3 6 11 12 19 12 12 0 13 -4 3 -22 -9 -17 -9 -23 1 -26 7 -3 30 -20 51 -39
22 -20 40 -30 44 -23 3 5 1 10 -5 10 -6 0 -8 4 -5 10 3 5 -3 17 -15 27 -11 10
-20 21 -20 25 0 4 20 16 45 27 46 20 58 44 29 55 -26 10 -101 7 -129 -6 -19
-9 -28 -9 -37 0 -15 15 -28 15 -28 2z"/>
<path d="M5267 2513 c-12 -20 1 -33 31 -32 23 2 24 2 5 6 -12 2 -23 12 -25 21
-3 13 -6 14 -11 5z"/>
<path d="M4454 2495 c11 -8 22 -12 25 -9 6 6 -19 24 -34 24 -5 -1 -1 -7 9 -15z"/>
<path d="M4984 2462 c-20 -13 -24 -57 -8 -80 18 -26 54 -30 54 -5 0 14 4 13
21 -6 12 -12 28 -20 36 -17 8 3 17 6 19 6 2 0 4 8 4 18 0 25 -36 61 -76 78
-39 16 -36 16 -50 6z"/>
<path d="M930 2360 l0 -80 -105 0 c-68 0 -105 -4 -105 -11 0 -7 35 -9 105 -7
l105 3 0 -322 0 -322 -107 -4 -108 -3 108 -2 107 -2 0 -90 c0 -53 4 -90 10
-90 6 0 10 7 10 15 0 14 11 19 37 16 6 -1 14 3 18 9 4 7 12 7 26 0 14 -8 19
-7 19 2 0 9 3 9 12 0 17 -17 28 -15 28 6 0 14 -9 17 -50 16 -27 -1 -56 -7 -64
-13 -11 -9 -15 -5 -20 20 -3 17 -6 49 -6 70 l0 39 1000 0 999 0 4 -92 3 -93 2
92 2 92 93 4 92 3 -92 2 -93 2 0 320 0 320 84 0 c47 0 88 5 91 10 4 6 -26 10
-84 10 l-90 0 -4 78 -3 77 -2 -77 -2 -78 -1000 0 -1000 0 1 53 c0 34 3 45 8
33 5 -12 10 -16 14 -9 9 15 -2 45 -14 37 -5 -3 -9 6 -9 20 0 14 -4 26 -10 26
-6 0 -10 -33 -10 -80z m2020 -421 l0 -319 -262 0 -263 1 -18 25 c-15 19 -16
28 -7 39 6 8 10 24 8 37 -2 18 -10 24 -35 26 l-33 3 0 -65 0 -66 -31 0 -30 0
20 26 c12 15 21 32 21 39 0 7 -9 24 -21 39 -40 50 -119 25 -119 -39 0 -11 7
-31 16 -43 15 -21 14 -22 -15 -22 -31 0 -31 0 -31 55 0 42 3 55 15 55 8 0 15
5 15 10 0 6 -18 10 -40 10 -22 0 -40 -4 -40 -10 0 -5 7 -10 16 -10 12 0 14
-10 12 -52 -3 -46 -6 -53 -25 -56 -22 -3 -23 0 -23 62 0 37 -4 66 -10 66 -5 0
-10 -18 -10 -40 0 -22 -2 -40 -5 -40 -3 0 -21 18 -41 40 -20 22 -40 40 -45 40
-5 0 -9 -29 -9 -65 0 -37 -4 -65 -10 -65 -5 0 -10 5 -10 10 0 6 -11 10 -25 10
-18 0 -25 5 -25 20 0 15 7 20 25 20 14 0 25 5 25 10 0 6 -11 10 -25 10 -16 0
-25 6 -25 15 0 9 9 15 25 15 14 0 25 5 25 10 0 6 -16 10 -35 10 l-35 0 0 -65
0 -65 -35 0 c-19 0 -35 2 -35 4 0 2 11 29 25 60 28 64 29 66 15 66 -6 0 -19
-19 -29 -42 l-17 -42 -17 42 c-9 23 -22 42 -28 42 -11 0 -5 -29 17 -72 22 -43
18 -60 -13 -56 -27 3 -28 6 -31 66 -3 69 -22 86 -22 20 l0 -42 -45 44 -45 44
0 -67 c0 -53 -3 -67 -15 -67 -12 0 -15 14 -15 65 0 46 -4 65 -13 65 -9 0 -13
-18 -12 -62 l0 -63 -37 -3 -38 -3 0 65 c0 54 -3 66 -16 66 -13 0 -15 -8 -12
-40 2 -22 1 -40 -3 -40 -4 0 -25 21 -48 48 l-40 47 -1 -72 c0 -40 -3 -73 -7
-73 -5 0 -21 30 -37 65 -16 36 -32 65 -35 65 -3 0 -19 -30 -35 -65 -28 -64
-29 -65 -69 -65 -33 0 -38 2 -27 15 16 20 3 54 -26 65 -32 13 -32 34 1 26 28
-7 34 8 8 23 -23 13 -53 -4 -53 -30 0 -11 10 -24 24 -31 31 -14 41 -37 19 -45
-9 -4 -19 -1 -21 5 -4 13 -32 17 -32 4 0 -4 5 -13 12 -20 9 -9 9 -12 -3 -12
-8 0 -26 27 -43 65 -15 36 -31 65 -35 65 -3 0 -16 -22 -28 -48 l-21 -47 -1
105 -1 106 40 -4 c25 -3 40 0 40 7 0 6 -13 11 -30 11 -23 0 -30 4 -30 20 0 15
7 20 25 20 31 0 33 17 3 22 -31 4 -35 28 -4 28 13 0 28 5 31 10 4 6 -10 10
-34 10 l-41 0 0 72 c0 68 1 70 18 55 37 -34 102 -12 102 34 0 14 -7 19 -25 19
-14 0 -25 -4 -25 -10 0 -5 7 -10 15 -10 25 0 17 -19 -10 -26 -31 -8 -55 10
-55 41 0 34 24 48 67 41 l38 -6 -24 20 c-26 22 -52 20 -83 -8 -17 -14 -18 -13
-18 16 l0 32 171 0 170 0 -3 -100 -4 -100 713 0 713 0 0 98 c0 54 2 101 4 103
2 2 56 3 120 1 l116 -3 0 -320z m-1180 272 c0 -12 -8 -17 -27 -16 -23 0 -29
-5 -31 -27 -2 -19 2 -28 17 -33 12 -3 25 -3 31 0 5 3 10 -3 10 -14 0 -17 -6
-21 -30 -21 -53 0 -89 63 -57 102 29 37 87 43 87 9z m240 2 c0 -10 -6 -12 -20
-8 -28 9 -25 -9 5 -29 28 -18 33 -47 11 -65 -20 -17 -71 -10 -71 9 0 10 8 14
23 12 30 -4 28 12 -3 26 -24 11 -32 36 -17 58 17 26 72 23 72 -3z m520 -3 c0
-14 -5 -17 -21 -13 -30 8 -52 -22 -38 -49 8 -15 17 -18 35 -14 19 5 24 3 24
-14 0 -16 -7 -20 -30 -20 -79 0 -96 108 -20 132 25 8 50 -3 50 -22z m-1120 5
c0 -10 -10 -15 -27 -16 l-28 -1 28 -10 c31 -11 46 -51 27 -73 -12 -15 -71 -21
-83 -9 -11 11 4 33 19 27 8 -3 21 -2 30 1 25 10 -3 38 -29 30 -16 -5 -19 -3
-14 11 4 9 7 25 7 36 0 15 7 19 35 19 24 0 35 -5 35 -15z m94 0 c9 -25 -5 -45
-30 -45 -14 0 -27 7 -30 15 -10 25 4 45 30 45 13 0 26 -7 30 -15z m56 11 c0
-13 -75 -127 -77 -119 -4 12 59 123 70 123 4 0 7 -2 7 -4z m333 -58 c22 -55
23 -63 9 -67 -9 -2 -18 2 -20 8 -5 14 -62 15 -62 1 0 -5 -9 -10 -20 -10 -19 0
-19 1 -1 48 10 26 21 55 24 65 4 9 15 17 26 17 14 0 25 -16 44 -62z m185 40
c-2 -17 3 -24 20 -26 18 -3 22 1 22 22 0 19 5 26 20 26 18 0 20 -7 20 -65 0
-58 -2 -65 -20 -65 -15 0 -20 7 -20 25 0 20 -5 25 -25 25 -22 0 -25 -3 -19
-25 5 -21 3 -25 -15 -25 -19 0 -21 6 -21 65 0 59 2 65 21 65 15 0 20 -5 17
-22z m187 -10 c1 -15 4 -30 8 -34 13 -13 7 -52 -9 -58 -9 -3 -29 -6 -45 -6
l-29 0 0 66 0 65 38 -3 c33 -3 37 -6 37 -30z m134 -29 c24 -65 22 -80 -9 -61
-24 15 -60 16 -60 2 0 -5 -9 -10 -20 -10 -11 0 -20 1 -20 3 0 4 42 112 46 119
3 5 13 8 23 8 13 0 25 -17 40 -61z m191 39 l1 -23 18 23 c11 12 29 22 42 22
22 0 22 -1 -6 -30 l-29 -30 27 -28 c32 -33 34 -42 8 -42 -11 0 -29 12 -40 28
l-20 27 -1 -27 c0 -17 -5 -28 -14 -28 -10 0 -15 17 -18 61 -1 33 -1 63 1 65
12 12 31 1 31 -18z m-994 -63 c8 -20 -13 -45 -38 -45 -21 0 -33 22 -24 45 7
20 55 19 62 0z m693 -437 c13 -33 -9 -63 -45 -63 -35 0 -56 43 -34 69 20 25
69 20 79 -6z m99 5 c-5 -25 -28 -28 -28 -4 0 12 6 21 16 21 9 0 14 -7 12 -17z
m-1380 -42 c-15 -5 -21 7 -13 26 7 17 8 17 15 -2 4 -11 3 -22 -2 -24z m292 7
c0 -5 -7 -8 -15 -8 -15 0 -20 21 -8 33 7 7 23 -11 23 -25z m115 -1 c51 -56 51
-57 6 -57 l-41 0 0 40 c0 46 7 49 35 17z m260 -17 l39 -40 -42 0 -42 0 0 40
c0 22 1 40 3 40 2 0 21 -18 42 -40z m352 8 c42 -41 42 -50 -4 -46 -34 3 -36 5
-37 41 -1 20 1 37 4 37 2 0 19 -14 37 -32z m357 -23 c16 -24 16 -25 -4 -25
-15 0 -20 7 -20 25 0 14 2 25 4 25 2 0 11 -11 20 -25z m-1346 -12 c2 -9 -9
-13 -37 -13 -32 0 -39 3 -34 16 7 18 64 16 71 -3z m280 0 c2 -9 -8 -13 -32
-13 -26 0 -36 4 -36 16 0 19 61 16 68 -3z"/>
<path d="M1100 2165 l0 -65 35 0 c19 0 35 5 35 10 0 6 -11 10 -25 10 -18 0
-25 5 -25 20 0 15 7 20 25 20 14 0 25 5 25 10 0 6 -11 10 -25 10 -16 0 -25 6
-25 15 0 9 9 15 25 15 14 0 25 5 25 10 0 6 -16 10 -35 10 l-35 0 0 -65z"/>
<path d="M1180 2220 c0 -5 7 -10 15 -10 12 0 15 -13 15 -55 0 -30 5 -55 10
-55 6 0 10 25 10 55 0 42 3 55 15 55 8 0 15 5 15 10 0 6 -18 10 -40 10 -22 0
-40 -4 -40 -10z"/>
<path d="M2090 1992 c-52 -17 -69 -88 -28 -116 48 -34 108 -4 108 52 0 40 -44
76 -80 64z m48 -34 c7 -7 12 -21 12 -33 0 -12 -5 -26 -12 -33 -7 -7 -21 -12
-33 -12 -12 0 -26 5 -33 12 -7 7 -12 21 -12 33 0 12 5 26 12 33 7 7 21 12 33
12 12 0 26 -5 33 -12z"/>
<path d="M2540 1933 c0 -42 4 -73 10 -73 6 0 10 21 10 48 l0 47 46 -47 c25
-27 47 -48 50 -48 2 0 4 29 4 65 0 37 -4 65 -10 65 -5 0 -10 -18 -10 -40 0
-22 -2 -40 -4 -40 -3 0 -25 21 -50 48 l-46 47 0 -72z"/>
<path d="M1040 1983 c0 -15 45 -123 51 -123 4 0 12 12 17 28 6 15 17 44 26 65
13 29 13 37 3 37 -7 0 -20 -19 -29 -42 l-16 -43 -18 43 c-15 36 -34 56 -34 35z"/>
<path d="M1162 1928 l3 -63 38 -3 c21 -2 37 1 37 7 0 6 -11 11 -25 11 -18 0
-25 5 -25 20 0 15 7 20 25 20 14 0 25 5 25 10 0 6 -11 10 -25 10 -16 0 -25 6
-25 15 0 9 9 15 25 15 14 0 25 5 25 10 0 6 -18 10 -40 10 l-41 0 3 -62z"/>
<path d="M1260 1925 c0 -37 4 -65 10 -65 6 0 10 12 10 28 l0 27 24 -30 c13
-16 28 -27 32 -23 4 5 -1 17 -10 27 -16 18 -17 22 -2 42 21 31 5 59 -34 59
l-30 0 0 -65z m48 28 c-5 -25 -28 -28 -28 -4 0 12 6 21 16 21 9 0 14 -7 12
-17z"/>
<path d="M1350 1983 c0 -5 9 -21 20 -38 11 -16 20 -42 20 -57 0 -16 5 -28 10
-28 6 0 10 14 10 31 0 18 9 47 21 65 17 28 18 34 5 34 -8 0 -18 -9 -21 -20 -3
-11 -10 -20 -15 -20 -5 0 -14 9 -20 20 -10 19 -30 28 -30 13z"/>
<path d="M1500 1980 c0 -5 7 -10 15 -10 12 0 15 -13 15 -55 0 -30 5 -55 10
-55 6 0 10 25 10 55 0 42 3 55 15 55 8 0 15 5 15 10 0 6 -18 10 -40 10 -22 0
-40 -4 -40 -10z"/>
<path d="M1600 1925 c0 -37 4 -65 10 -65 6 0 10 28 10 65 0 37 -4 65 -10 65
-6 0 -10 -28 -10 -65z"/>
<path d="M1654 1925 c-7 -51 -7 -65 3 -65 8 0 13 12 13 30 0 39 13 38 32 -2
l15 -33 18 40 18 40 6 -34 c3 -19 12 -37 20 -39 10 -3 12 0 8 12 -3 8 -9 38
-13 66 -4 27 -10 50 -14 50 -4 0 -15 -19 -24 -42 l-18 -43 -21 43 c-11 23 -24
42 -27 42 -3 0 -10 -29 -16 -65z"/>
<path d="M1810 1925 l0 -65 40 0 c45 0 55 17 13 22 -37 4 -45 38 -9 38 34 0
42 18 9 22 -39 4 -42 28 -4 28 17 0 31 5 31 10 0 6 -18 10 -40 10 l-40 0 0
-65z"/>
<path d="M1950 1980 c0 -5 7 -10 15 -10 12 0 15 -13 15 -55 0 -30 5 -55 10
-55 6 0 10 25 10 55 0 42 3 55 15 55 8 0 15 5 15 10 0 6 -18 10 -40 10 -22 0
-40 -4 -40 -10z"/>
<path d="M2257 1984 c-15 -16 -6 -45 18 -56 14 -6 25 -19 25 -30 0 -20 -20
-24 -38 -6 -17 17 -28 2 -12 -17 17 -21 57 -19 70 4 13 26 5 46 -26 59 -33 16
-32 36 2 28 19 -5 25 -3 22 6 -5 14 -50 23 -61 12z"/>
<path d="M2350 1925 c0 -37 4 -65 10 -65 6 0 10 28 10 65 0 37 -4 65 -10 65
-6 0 -10 -28 -10 -65z"/>
<path d="M2416 1975 c-26 -27 -29 -56 -9 -84 24 -32 68 -39 94 -15 28 25 25
54 -6 54 -14 0 -25 -4 -25 -10 0 -5 7 -10 16 -10 14 0 14 -3 4 -15 -17 -21
-44 -19 -65 5 -15 17 -16 24 -6 46 10 24 16 26 51 21 40 -5 54 5 24 17 -27 11
-62 7 -78 -9z"/>
<path d="M2740 1941 c0 -53 17 -81 50 -81 33 0 50 28 50 81 0 66 -18 63 -22
-3 -3 -49 -5 -53 -28 -53 -23 0 -25 4 -28 53 -4 66 -22 69 -22 3z"/>
<path d="M2864 1928 c1 -37 5 -62 11 -61 6 1 11 11 13 22 2 11 12 23 22 26 24
8 35 42 20 60 -7 8 -25 15 -39 15 -27 0 -27 -1 -27 -62z m51 22 c0 -7 -6 -15
-12 -17 -8 -3 -13 4 -13 17 0 13 5 20 13 18 6 -3 12 -11 12 -18z"/>
<path d="M1460 2200 c0 -5 7 -10 15 -10 8 0 15 5 15 10 0 6 -7 10 -15 10 -8 0
-15 -4 -15 -10z"/>
<path d="M1840 2165 c0 -8 5 -15 10 -15 6 0 10 7 10 15 0 8 -4 15 -10 15 -5 0
-10 -7 -10 -15z"/>
<path d="M2220 2196 c0 -9 5 -16 10 -16 6 0 10 4 10 9 0 6 -4 13 -10 16 -5 3
-10 -1 -10 -9z"/>
<path d="M2220 2145 c0 -8 7 -15 15 -15 8 0 15 4 15 9 0 5 -7 11 -15 15 -9 3
-15 0 -15 -9z"/>
<path d="M2346 2165 c-3 -9 0 -15 9 -15 16 0 20 16 6 24 -5 3 -11 -1 -15 -9z"/>
<path d="M1556 2143 c-11 -11 -6 -23 9 -23 8 0 15 4 15 9 0 13 -16 22 -24 14z"/>
<path d="M993 2380 c1 -11 5 -20 9 -20 4 0 8 9 8 20 0 11 -4 20 -9 20 -6 0 -9
-9 -8 -20z"/>
<path d="M1024 2385 c-9 -23 14 -45 26 -25 5 8 8 19 7 24 -6 17 -27 18 -33 1z"/>
<path d="M1086 2391 c-8 -12 4 -41 16 -41 6 0 7 8 4 17 -4 9 -1 20 6 25 10 6
9 8 -4 8 -9 0 -19 -4 -22 -9z"/>
<path d="M1182 2375 c2 -19 6 -24 18 -19 8 4 23 7 33 8 9 0 17 8 17 18 0 12
-5 16 -17 11 -10 -4 -21 -11 -25 -17 -5 -7 -8 -4 -8 7 0 9 -4 17 -10 17 -5 0
-9 -11 -8 -25z"/>
<path d="M1260 2381 c0 -22 16 -36 24 -22 8 12 -3 41 -15 41 -5 0 -9 -9 -9
-19z"/>
<path d="M1306 2385 c-9 -23 -8 -25 9 -25 17 0 19 9 6 28 -7 11 -10 10 -15 -3z"/>
<path d="M1344 2385 c-7 -17 3 -35 18 -35 7 0 7 4 -1 13 -8 10 -7 17 1 25 9 9
9 12 0 12 -7 0 -15 -7 -18 -15z"/>
<path d="M1403 2393 c-7 -2 -13 -11 -13 -18 0 -7 6 -15 13 -18 7 -3 12 4 12
19 0 13 0 24 0 23 0 0 -6 -3 -12 -6z"/>
<path d="M1453 2384 c-8 -21 12 -40 29 -27 7 5 25 8 39 7 17 -2 26 2 26 12 0
8 -6 13 -14 10 -7 -3 -13 0 -14 7 0 7 -4 3 -9 -8 -7 -18 -8 -19 -15 -2 -9 21
-34 22 -42 1z m27 -10 c0 -8 -4 -12 -10 -9 -5 3 -10 10 -10 16 0 5 5 9 10 9 6
0 10 -7 10 -16z"/>
<path d="M1584 2375 c0 -14 5 -24 9 -22 5 1 8 6 8 10 -1 4 -1 14 -1 22 0 8 -4
15 -9 15 -5 0 -8 -11 -7 -25z"/>
<path d="M1621 2393 c0 -5 4 -17 9 -28 8 -18 9 -17 9 8 1 15 -3 27 -9 27 -5 0
-10 -3 -9 -7z"/>
<path d="M1653 2384 c-6 -17 13 -42 24 -30 4 4 1 11 -7 16 -10 7 -11 10 -2 10
6 0 12 5 12 10 0 16 -20 12 -27 -6z"/>
<path d="M1692 2388 c-8 -8 -9 -15 0 -25 14 -17 39 2 31 23 -6 17 -15 18 -31
2z"/>
<path d="M1759 2398 c-7 -24 -5 -38 4 -35 15 5 22 37 8 37 -6 0 -11 -1 -12 -2z"/>
<path d="M1791 2383 c-1 -12 4 -25 10 -28 14 -9 27 4 13 13 -6 4 -14 14 -17
22 -4 10 -6 8 -6 -7z"/>
<path d="M1840 2380 c0 -11 5 -20 10 -20 6 0 10 9 10 20 0 11 -4 20 -10 20 -5
0 -10 -9 -10 -20z"/>
<path d="M1877 2386 c-3 -8 2 -20 10 -28 15 -11 16 -11 10 6 -5 12 -3 23 5 28
10 6 9 8 -3 8 -9 0 -19 -6 -22 -14z"/>
<path d="M1972 2376 c-9 -21 -8 -23 9 -19 21 6 23 11 11 31 -6 9 -12 6 -20
-12z"/>
<path d="M2018 2394 c-9 -14 7 -50 16 -36 4 7 3 19 -2 28 -5 9 -12 13 -14 8z"/>
<path d="M2050 2375 c0 -33 15 -33 16 0 1 14 -2 25 -7 25 -5 0 -9 -11 -9 -25z"/>
<path d="M1136 2375 c-4 -10 1 -15 14 -15 13 0 18 5 14 15 -4 8 -10 15 -14 15
-4 0 -10 -7 -14 -15z"/>
<path d="M1920 2375 c0 -6 7 -12 15 -12 8 0 15 6 15 12 0 6 -7 12 -15 12 -8 0
-15 -6 -15 -12z"/>
<path d="M4800 2310 c0 -5 5 -10 12 -10 6 0 19 -7 29 -16 28 -25 47 -12 21 14
-22 22 -62 30 -62 12z"/>
<path d="M5393 2260 c0 -36 2 -50 4 -32 2 17 2 47 0 65 -2 17 -4 3 -4 -33z"/>
<path d="M4143 2262 c-13 -2 -23 -7 -23 -11 0 -12 114 -41 118 -30 2 5 11 9
20 9 14 0 13 2 -3 14 -22 15 -79 24 -112 18z"/>
<path d="M3440 2216 c0 -2 8 -10 18 -17 15 -13 16 -12 3 4 -13 16 -21 21 -21
13z"/>
<path d="M4704 2206 c-10 -8 -16 -17 -13 -20 3 -3 14 3 24 14 21 23 17 26 -11
6z"/>
<path d="M4285 1970 c-11 -5 -59 -9 -106 -9 -60 -1 -91 -5 -105 -16 -18 -14
-17 -15 11 -9 17 3 39 8 49 11 18 5 18 4 -2 -22 -34 -44 -28 -58 14 -33 23 14
34 27 31 37 -3 15 5 16 62 13 36 -3 68 -8 71 -13 3 -4 11 1 18 11 8 13 9 20 1
20 -5 0 -7 5 -4 10 7 12 -12 12 -40 0z"/>
<path d="M3457 1933 c-11 -10 -8 -45 3 -38 5 3 18 1 29 -5 29 -15 36 5 9 29
-23 22 -31 25 -41 14z"/>
<path d="M4066 1865 c-8 -8 -21 -15 -30 -15 -43 0 -59 -61 -27 -101 16 -20 21
-21 35 -10 9 7 16 22 16 33 0 12 4 17 13 12 6 -4 -1 8 -18 26 l-30 34 28 -18
c33 -20 35 -20 43 22 7 35 -5 42 -30 17z"/>
<path d="M4167 1841 c-4 -17 -16 -35 -29 -42 -13 -7 -42 -31 -66 -54 l-43 -41
28 1 c15 0 33 -6 40 -15 17 -21 16 -33 -3 -26 -8 3 -12 2 -9 -4 4 -6 -13 -10
-43 -10 -27 0 -52 -3 -55 -7 -9 -8 47 -46 99 -68 37 -15 40 -15 52 2 7 10 28
39 47 65 l34 47 -30 22 c-17 12 -28 24 -25 27 4 3 16 -4 29 -16 29 -28 37 -28
37 1 0 12 9 42 20 66 11 24 20 44 20 45 0 0 -16 1 -35 2 -25 0 -35 -4 -35 -15
0 -13 -2 -13 -9 -2 -5 7 -6 22 -4 32 3 10 1 19 -5 19 -5 0 -12 -13 -15 -29z"/>
<path d="M3553 1845 c-8 -9 -9 -16 -3 -20 6 -3 13 1 16 10 9 21 2 26 -13 10z"/>
<path d="M3680 1685 c0 -15 4 -24 10 -20 6 3 10 12 10 20 0 8 -4 17 -10 20 -6
4 -10 -5 -10 -20z"/>
<path d="M1171 1490 c0 -19 3 -29 6 -23 3 9 10 10 23 3 12 -6 28 -7 43 -1 14
6 28 7 32 3 3 -3 3 1 0 10 -5 12 -16 16 -46 13 -28 -3 -41 1 -49 13 -7 13 -9
10 -9 -18z"/>
<path d="M1306 1505 c-3 -8 -1 -15 4 -15 6 0 10 -5 10 -11 0 -5 -6 -7 -12 -3
-10 5 -10 4 -1 -6 6 -7 17 -9 23 -5 8 5 8 11 2 17 -6 6 -8 17 -5 24 3 8 1 14
-5 14 -5 0 -12 -7 -16 -15z"/>
<path d="M2500 1495 c0 -14 2 -25 4 -25 2 0 6 11 8 25 3 14 1 25 -3 25 -5 0
-9 -11 -9 -25z"/>
<path d="M1354 1485 c1 -24 16 -37 16 -14 0 8 4 8 15 -1 16 -13 35 -6 35 15 0
21 -19 28 -35 15 -11 -9 -15 -9 -15 -1 0 6 -4 11 -9 11 -5 0 -8 -11 -7 -25z
m56 5 c0 -5 -4 -10 -10 -10 -5 0 -10 5 -10 10 0 6 5 10 10 10 6 0 10 -4 10
-10z"/>
<path d="M1447 1490 c-3 -11 -1 -23 4 -26 5 -3 9 0 9 7 0 8 4 8 15 -1 13 -11
15 -8 14 16 0 16 -3 23 -6 16 -3 -9 -9 -10 -18 -2 -9 8 -14 5 -18 -10z"/>
<path d="M1560 1485 c0 -25 23 -35 35 -15 4 6 11 8 16 5 16 -11 9 7 -8 21 -27
21 -43 16 -43 -11z m30 5 c0 -5 -4 -10 -10 -10 -5 0 -10 5 -10 10 0 6 5 10 10
10 6 0 10 -4 10 -10z"/>
<path d="M1925 1500 c-8 -13 13 -40 29 -39 7 0 6 2 -1 6 -7 2 -13 11 -13 18 0
7 6 16 13 18 7 3 6 6 -5 6 -9 1 -20 -4 -23 -9z"/>
<path d="M2182 1488 c2 -18 10 -23 36 -24 22 -1 32 3 32 13 0 8 -4 12 -8 9 -5
-3 -21 1 -36 9 -26 14 -27 13 -24 -7z"/>
<path d="M2312 1490 c0 -14 2 -19 5 -12 2 6 2 18 0 25 -3 6 -5 1 -5 -13z"/>
<path d="M2340 1484 c0 -25 14 -32 26 -13 4 8 9 7 15 -2 6 -11 11 -11 20 -2
19 19 3 40 -30 41 -26 1 -31 -3 -31 -24z m57 -6 c-3 -8 -6 -5 -6 6 -1 11 2 17
5 13 3 -3 4 -12 1 -19z"/>
<path d="M2420 1505 c0 -11 34 -44 41 -39 5 3 -1 14 -11 24 -20 20 -30 25 -30
15z"/>
<path d="M2667 1490 c3 -11 9 -17 14 -15 10 7 1 35 -11 35 -5 0 -6 -9 -3 -20z"/>
<path d="M1107 1493 c-4 -3 -7 -13 -7 -22 1 -13 3 -13 11 2 11 19 8 33 -4 20z"/>
<path d="M1152 1480 c0 -14 2 -19 5 -12 2 6 2 18 0 25 -3 6 -5 1 -5 -13z"/>
<path d="M1505 1490 c-10 -17 12 -37 25 -24 8 8 6 15 -4 23 -10 9 -16 9 -21 1z"/>
<path d="M1630 1485 c0 -14 7 -20 23 -21 16 -1 23 4 23 17 0 22 -12 25 -19 7
-4 -10 -8 -9 -16 2 -9 13 -11 12 -11 -5z"/>
<path d="M1685 1490 c-10 -16 2 -24 36 -26 19 -1 29 3 29 12 0 8 -6 14 -14 14
-8 0 -21 3 -29 6 -8 3 -18 0 -22 -6z"/>
<path d="M1764 1485 c-4 -9 -4 -19 0 -22 3 -4 6 -1 6 6 0 7 5 9 10 6 6 -3 10
-2 10 4 0 18 -20 23 -26 6z"/>
<path d="M1801 1484 c0 -11 3 -14 6 -6 3 7 2 16 -1 19 -3 4 -6 -2 -5 -13z"/>
<path d="M1845 1490 c-9 -15 3 -29 25 -27 13 1 20 8 19 22 0 11 -3 14 -6 7 -4
-9 -8 -10 -18 -2 -9 8 -15 8 -20 0z"/>
<path d="M1975 1490 c-16 -25 30 -36 65 -15 10 6 12 4 7 -9 -5 -12 -3 -16 5
-13 7 2 12 10 10 16 -2 9 3 9 17 1 13 -6 28 -7 44 -1 14 6 28 7 32 3 3 -3 3 1
-1 11 -7 19 -24 23 -24 6 0 -8 -4 -8 -12 -1 -14 10 -67 10 -86 -2 -6 -4 -20
-2 -31 4 -13 7 -22 7 -26 0z"/>
<path d="M2261 1484 c0 -11 3 -14 6 -6 3 7 2 16 -1 19 -3 4 -6 -2 -5 -13z"/>
<path d="M2640 1481 c0 -12 5 -21 10 -21 6 0 10 6 10 14 0 8 -4 18 -10 21 -5
3 -10 -3 -10 -14z"/>
<path d="M2727 1493 c-4 -3 -7 -15 -7 -25 0 -16 3 -17 20 -8 13 7 20 7 20 1 0
-6 15 -4 34 4 19 8 43 12 53 8 17 -7 17 -6 0 12 -11 10 -22 14 -25 9 -8 -11
-22 -12 -39 -1 -6 4 -15 3 -18 -3 -5 -8 -11 -8 -19 -1 -7 6 -16 8 -19 4z"/>
<path d="M2863 1475 c0 -15 4 -24 11 -22 6 2 11 12 11 22 0 10 -5 20 -11 22
-7 2 -11 -7 -11 -22z"/>
<path d="M2521 1474 c0 -11 3 -14 6 -6 3 7 2 16 -1 19 -3 4 -6 -2 -5 -13z"/>
<path d="M2542 1478 c6 -18 28 -21 28 -4 0 9 -7 16 -16 16 -9 0 -14 -5 -12
-12z"/>
<path d="M2582 1479 c2 -6 8 -10 13 -10 5 0 11 4 13 10 2 6 -4 11 -13 11 -9 0
-15 -5 -13 -11z"/>
<path d="M3912 1448 c-7 -7 -12 -17 -12 -24 0 -7 46 -53 103 -104 141 -126
196 -180 203 -202 3 -10 10 -18 15 -18 5 0 43 -29 84 -65 66 -57 78 -64 96
-55 11 6 19 15 17 19 -2 5 -46 48 -98 97 -52 48 -160 149 -239 223 -79 75
-146 137 -150 139 -4 1 -12 -3 -19 -10z"/>
<path d="M3847 1372 c-16 -17 -14 -20 21 -54 31 -30 42 -35 70 -31 l34 6 -48
48 c-27 27 -51 49 -55 49 -3 0 -13 -8 -22 -18z"/>
<path d="M4130 1330 c87 -80 101 -91 55 -42 -27 30 -59 58 -70 64 -11 6 -4 -4
15 -22z"/>
<path d="M947 1343 c-11 -20 -8 -181 4 -189 7 -4 166 -8 355 -10 277 -2 345 0
354 11 7 8 10 47 8 102 l-3 88 -357 3 c-196 1 -359 -1 -361 -5z m644 -107
c-19 -22 -43 1 -27 26 9 15 12 16 25 3 12 -11 12 -17 2 -29z m-560 22 c0 -10
2 -10 6 0 5 13 33 17 33 4 0 -4 20 -8 45 -7 26 0 44 -4 42 -10 -2 -5 -15 -9
-28 -9 -13 1 -27 -3 -30 -8 -9 -13 -39 2 -39 20 0 13 -3 12 -15 -4 -13 -16
-16 -17 -25 -4 -13 19 -13 30 0 30 6 0 10 -6 11 -12z m199 -5 c0 24 30 22 30
-3 0 -17 -7 -20 -40 -20 -38 0 -40 1 -30 21 11 20 12 20 25 2 13 -17 14 -17
15 0z m84 10 c11 -11 70 -11 84 0 10 8 16 7 22 -2 5 -10 19 -12 44 -7 30 6 36
4 36 -10 0 -14 -2 -15 -17 -3 -14 12 -16 12 -11 -1 4 -12 -6 -15 -58 -16 -35
0 -64 4 -64 9 0 5 -7 7 -15 3 -8 -3 -15 0 -15 6 0 9 -3 9 -12 0 -18 -18 -28
-15 -28 8 0 20 20 27 34 13z"/>
<path d="M3776 1302 c-15 -18 -14 -21 19 -51 l36 -32 19 23 20 23 -32 28 c-38
32 -40 32 -62 9z"/>
<path d="M3715 1240 c-18 -20 -17 -21 6 -46 13 -14 40 -39 59 -54 l36 -28 1
38 c2 34 -3 43 -41 74 -43 35 -44 35 -61 16z"/>
<path d="M4285 1180 c16 -16 33 -30 39 -30 6 0 -4 14 -22 30 -18 17 -36 30
-39 30 -4 0 6 -13 22 -30z"/>
<path d="M3651 1168 c-13 -21 -8 -27 95 -122 60 -56 169 -159 243 -229 134
-127 135 -128 155 -108 19 20 19 20 -48 82 -36 34 -64 64 -61 67 3 3 11 0 17
-6 7 -7 19 -12 28 -12 9 0 40 -22 70 -48 l53 -48 23 21 c20 18 21 22 8 36 -19
21 0 37 22 18 12 -10 19 -9 37 9 l21 22 -26 27 c-36 39 -25 61 13 28 l30 -24
21 21 20 20 -58 58 c-33 32 -59 63 -59 69 0 5 -6 16 -12 22 -10 10 -10 6 -1
-22 6 -19 12 -56 13 -84 1 -42 -4 -55 -26 -79 -16 -17 -39 -31 -56 -32 -15 -1
-32 -3 -38 -5 -5 -1 -17 0 -25 3 -8 3 -35 11 -59 18 -54 14 -117 55 -151 95
-26 32 -218 218 -229 223 -3 1 -12 -8 -20 -20z"/>
<path d="M4340 1136 c0 -2 8 -10 18 -17 15 -13 16 -12 3 4 -13 16 -21 21 -21
13z"/>
<path d="M3680 1039 c73 -72 211 -203 390 -367 25 -23 49 -42 55 -42 5 0 -2
10 -15 23 -346 325 -581 536 -430 386z"/>
<path d="M4380 1096 c0 -2 8 -10 18 -17 15 -13 16 -12 3 4 -13 16 -21 21 -21
13z"/>
<path d="M4931 978 c13 -21 26 -32 28 -27 2 6 -9 23 -24 38 l-27 26 23 -37z"/>
<path d="M4349 827 c-75 -78 -149 -157 -164 -175 l-27 -33 22 -19 c44 -38 68
-27 155 67 44 47 106 112 138 144 52 53 62 71 58 107 -2 14 -32 52 -41 52 -3
-1 -66 -65 -141 -143z"/>
<path d="M5000 891 c0 -5 -3 -17 -6 -25 -5 -12 -2 -15 10 -10 18 7 21 29 6 39
-5 3 -10 2 -10 -4z"/>
<path d="M3595 840 c6 -10 -3 -11 -38 -7 -33 4 -45 3 -41 -6 6 -16 94 -16 94
0 0 6 -5 15 -12 19 -7 5 -8 3 -3 -6z"/>
<path d="M4992 820 c0 -14 2 -19 5 -12 2 6 2 18 0 25 -3 6 -5 1 -5 -13z"/>
<path d="M4975 760 c-4 -17 -5 -34 -2 -36 3 -3 8 9 12 26 4 17 5 34 2 36 -3 3
-8 -9 -12 -26z"/>
<path d="M940 700 c0 -17 6 -19 48 -18 39 2 48 6 48 20 0 21 -7 23 -24 6 -9
-9 -12 -9 -12 3 -1 10 -5 9 -15 -5 -13 -17 -15 -18 -15 -3 0 9 -7 17 -15 17
-8 0 -15 -9 -15 -20z"/>
<path d="M1050 700 c0 -8 8 -16 19 -17 13 -1 17 4 14 16 -6 22 -33 23 -33 1z"/>
<path d="M1116 703 c-4 -9 -2 -21 4 -27 7 -7 10 -2 10 17 0 31 -5 34 -14 10z"/>
<path d="M1487 263 c-13 -12 -7 -53 7 -53 22 0 36 23 25 40 -8 12 -9 11 -7 -4
2 -10 -3 -21 -11 -24 -10 -3 -13 2 -9 22 6 28 5 30 -5 19z"/>
<path d="M1572 263 c-10 -4 -9 -9 4 -24 16 -18 16 -19 -1 -19 -10 0 -16 -3
-12 -6 3 -4 14 -4 23 0 13 5 14 9 4 21 -6 8 -9 19 -5 25 7 11 6 11 -13 3z"/>
<path d="M1674 255 c-9 -23 3 -45 25 -45 10 0 21 7 25 15 4 12 2 13 -14 3 -25
-16 -38 -3 -22 22 8 13 8 20 2 20 -6 0 -13 -7 -16 -15z"/>
<path d="M2002 250 c0 -14 2 -19 5 -12 2 6 2 18 0 25 -3 6 -5 1 -5 -13z"/>
<path d="M2113 263 c-18 -6 -17 -53 1 -53 7 0 19 7 26 16 11 12 11 17 -1 28
-8 8 -20 12 -26 9z m19 -35 c-15 -15 -26 -4 -18 18 5 13 9 15 18 6 9 -9 9 -15
0 -24z"/>
<path d="M2440 255 c-14 -16 -7 -45 11 -45 8 0 8 4 -1 15 -9 11 -10 19 -2 27
15 15 35 -1 28 -25 -4 -15 -2 -17 7 -8 8 8 9 16 1 28 -15 23 -29 26 -44 8z"/>
<path d="M2540 255 c7 -8 10 -22 6 -30 -3 -9 -2 -13 4 -10 16 10 12 42 -6 49
-14 5 -15 4 -4 -9z"/>
<path d="M3035 260 c-4 -6 -2 -17 5 -24 8 -11 8 -15 -2 -19 -8 -4 -7 -6 5 -6
9 -1 17 6 17 14 0 8 -5 15 -11 15 -6 0 -9 7 -5 15 6 17 0 20 -9 5z"/>
<path d="M3084 255 c-3 -8 -4 -20 -2 -27 3 -7 7 -1 10 15 6 29 1 36 -8 12z"/>
<path d="M3307 263 c-10 -9 -9 -53 1 -53 4 0 8 14 7 30 0 17 0 30 -1 30 0 0
-4 -3 -7 -7z"/>
<path d="M3355 260 c-4 -6 -1 -17 5 -25 10 -12 10 -15 0 -15 -8 0 -11 -3 -7
-6 3 -3 11 -3 17 1 8 5 8 10 0 20 -7 8 -9 19 -5 25 3 5 4 10 1 10 -3 0 -8 -5
-11 -10z"/>
<path d="M3394 259 c-3 -6 0 -15 7 -20 12 -8 12 -11 -1 -19 -13 -8 -13 -10 2
-10 24 0 31 15 13 30 -8 7 -12 16 -9 21 3 5 3 9 0 9 -3 0 -8 -5 -12 -11z"/>
<path d="M3470 256 c0 -8 5 -18 11 -22 8 -4 7 -9 -2 -15 -10 -6 -10 -9 -2 -9
17 0 25 17 12 25 -5 4 -8 13 -5 21 3 8 1 14 -4 14 -6 0 -10 -6 -10 -14z"/>
<path d="M3522 240 c0 -19 2 -27 5 -17 2 9 2 25 0 35 -3 9 -5 1 -5 -18z"/>
<path d="M3945 260 c-4 -6 -2 -17 5 -24 8 -11 8 -15 -2 -19 -9 -4 -7 -6 4 -6
22 -1 34 19 18 29 -7 4 -9 13 -6 19 4 6 3 11 -3 11 -5 0 -13 -5 -16 -10z"/>
<path d="M4033 263 c-7 -3 -13 -16 -13 -29 0 -17 5 -24 20 -24 11 0 23 7 27
16 7 18 -16 44 -34 37z m22 -22 c3 -5 1 -12 -5 -16 -5 -3 -10 1 -10 9 0 18 6
21 15 7z"/>
<path d="M4089 265 c-5 -22 -2 -49 6 -52 6 -2 11 10 11 27 1 16 -2 30 -7 30
-5 0 -9 -2 -10 -5z"/>
<path d="M4143 263 c-7 -3 -13 -16 -13 -29 0 -17 5 -24 20 -24 11 0 23 7 27
16 7 18 -16 44 -34 37z m18 -26 c-1 -12 -15 -9 -19 4 -3 6 1 10 8 8 6 -3 11
-8 11 -12z"/>
<path d="M4227 249 c-10 -35 -8 -46 3 -29 9 13 11 13 20 0 8 -12 10 -12 10 -1
0 11 3 11 15 1 12 -10 15 -10 15 1 0 8 -5 21 -11 29 -8 12 -12 12 -16 2 -4
-10 -8 -9 -17 4 -12 15 -13 15 -19 -7z"/>
<path d="M4371 256 c-16 -20 -2 -48 22 -44 25 4 35 28 12 28 -9 0 -13 -4 -10
-10 3 -5 1 -10 -4 -10 -6 0 -11 7 -11 15 0 8 7 15 16 15 8 0 12 5 9 10 -9 14
-20 13 -34 -4z"/>
<path d="M4510 240 c0 -22 5 -30 18 -30 13 0 14 2 3 9 -11 7 -11 9 0 14 9 4
10 6 2 6 -7 1 -10 8 -7 16 4 8 1 15 -5 15 -6 0 -11 -13 -11 -30z"/>
<path d="M4557 241 c7 -32 13 -40 13 -18 0 8 2 22 5 30 4 8 0 14 -9 14 -12 0
-14 -7 -9 -26z"/>
<path d="M4631 256 c-15 -17 -4 -46 18 -45 10 0 11 2 4 6 -15 6 -17 33 -3 33
6 0 10 5 10 10 0 14 -16 12 -29 -4z"/>
<path d="M1432 239 c1 -12 9 -24 16 -25 7 -1 8 0 3 2 -6 3 -8 11 -5 19 3 7 0
16 -6 20 -8 5 -11 0 -8 -16z"/>
<path d="M1612 235 c0 -16 2 -22 5 -12 2 9 2 23 0 30 -3 6 -5 -1 -5 -18z"/>
<path d="M1636 245 c-3 -8 -1 -15 4 -15 6 0 10 7 10 15 0 8 -2 15 -4 15 -2 0
-6 -7 -10 -15z"/>
<path d="M1760 249 c0 -5 -4 -8 -9 -5 -5 4 -6 -4 -3 -16 5 -19 7 -20 10 -5 2
9 8 17 13 17 5 0 9 -8 9 -17 0 -15 2 -16 10 -3 13 20 13 33 0 25 -5 -3 -10 -1
-10 4 0 6 -4 11 -10 11 -5 0 -10 -5 -10 -11z"/>
<path d="M1821 238 c-1 -21 4 -28 17 -28 11 0 13 3 6 8 -7 4 -14 16 -17 27 -4
15 -5 14 -6 -7z"/>
<path d="M1881 243 c-7 -8 -11 -16 -8 -19 2 -2 10 2 17 11 17 20 9 27 -9 8z"/>
<path d="M1942 235 c0 -16 2 -22 5 -12 2 9 2 23 0 30 -3 6 -5 -1 -5 -18z"/>
<path d="M1972 235 c0 -16 2 -22 5 -12 2 9 2 23 0 30 -3 6 -5 -1 -5 -18z"/>
<path d="M2052 240 c-16 -26 -16 -25 12 -25 21 0 23 3 14 20 -6 11 -11 21 -12
22 -1 1 -7 -7 -14 -17z"/>
<path d="M2241 232 c-10 -24 -10 -25 3 -9 13 16 14 16 20 1 4 -9 9 -14 12 -11
3 3 0 15 -8 26 -15 21 -15 21 -27 -7z"/>
<path d="M2332 235 c0 -16 2 -22 5 -12 2 9 2 23 0 30 -3 6 -5 -1 -5 -18z"/>
<path d="M2362 235 c0 -16 2 -22 5 -12 2 9 2 23 0 30 -3 6 -5 -1 -5 -18z"/>
<path d="M2403 245 c-7 -8 -13 -16 -13 -19 0 -2 6 -6 13 -9 7 -3 13 5 13 19 1
13 1 24 0 24 0 -1 -7 -7 -13 -15z"/>
<path d="M2504 245 c-7 -17 3 -35 18 -35 7 0 6 5 -2 15 -6 8 -9 19 -5 25 3 5
4 10 0 10 -3 0 -8 -7 -11 -15z"/>
<path d="M2580 252 c0 -7 7 -20 15 -28 19 -20 20 -4 0 22 -9 12 -14 14 -15 6z"/>
<path d="M2615 251 c-3 -5 -1 -12 5 -16 5 -3 10 1 10 9 0 18 -6 21 -15 7z"/>
<path d="M3122 240 c-16 -26 -15 -29 8 -23 22 6 24 11 12 30 -6 9 -11 7 -20
-7z"/>
<path d="M3172 235 c0 -16 2 -22 5 -12 2 9 2 23 0 30 -3 6 -5 -1 -5 -18z"/>
<path d="M3200 255 c0 -10 39 -44 44 -37 2 4 -7 15 -20 25 -13 10 -24 15 -24
12z"/>
<path d="M3260 235 c0 -14 4 -25 9 -25 4 0 6 11 3 25 -2 14 -6 25 -8 25 -2 0
-4 -11 -4 -25z"/>
<path d="M3551 244 c0 -11 3 -14 6 -6 3 7 2 16 -1 19 -3 4 -6 -2 -5 -13z"/>
<path d="M3601 244 c0 -11 3 -14 6 -6 3 7 2 16 -1 19 -3 4 -6 -2 -5 -13z"/>
<path d="M3640 241 c0 -11 4 -22 9 -25 4 -3 6 6 3 19 -5 30 -12 33 -12 6z"/>
<path d="M3736 242 c4 -14 0 -22 -13 -25 -17 -4 -17 -5 0 -6 21 -1 34 26 19
41 -8 8 -9 5 -6 -10z"/>
<path d="M3797 239 c-4 -15 -11 -20 -22 -15 -9 3 -13 2 -10 -4 11 -17 33 -11
40 11 4 11 5 23 2 25 -2 3 -7 -5 -10 -17z"/>
<path d="M3830 250 c0 -5 6 -10 13 -11 6 0 3 -4 -8 -9 -19 -8 -19 -9 3 -9 24
-1 25 0 16 23 -7 18 -24 22 -24 6z"/>
<path d="M3880 235 c0 -14 4 -25 9 -25 4 0 6 11 3 25 -2 14 -6 25 -8 25 -2 0
-4 -11 -4 -25z"/>
<path d="M3990 235 c0 -14 5 -25 10 -25 6 0 10 11 10 25 0 14 -4 25 -10 25 -5
0 -10 -11 -10 -25z"/>
<path d="M4310 241 c-14 -27 -13 -29 15 -27 26 1 29 5 19 30 -8 21 -21 20 -34
-3z"/>
<path d="M4430 236 c0 -14 5 -26 10 -26 6 0 10 7 10 15 0 8 0 18 1 22 0 4 -4
9 -10 11 -6 2 -11 -8 -11 -22z"/>
<path d="M4471 243 c-10 -11 -10 -18 -2 -26 14 -14 23 -4 19 21 -3 18 -5 18
-17 5z"/>
<path d="M4597 253 c-11 -10 -8 -43 3 -43 6 0 10 11 10 25 0 26 -2 29 -13 18z"/>
<path d="M2199 231 c9 -6 10 -10 2 -14 -8 -4 -8 -5 1 -3 20 4 21 26 1 26 -14
0 -15 -2 -4 -9z"/>
<path d="M3558 213 c7 -3 16 -2 19 1 4 3 -2 6 -13 5 -11 0 -14 -3 -6 -6z"/>
<path d="M890 139 c0 -5 5 -7 10 -4 6 3 10 8 10 11 0 2 -4 4 -10 4 -5 0 -10
-5 -10 -11z"/>
</g>
</svg>
